<svg id="图层_1" data-name="图层 1" xmlns="http://www.w3.org/2000/svg" viewBox="0 0 180 16"><defs><style>.cls-1{fill:#444;}.cls-2{fill:#727171;}.cls-3{fill:lime;}.cls-4{fill:#e5e5e5;}.cls-5{fill:#1e1e1e;}.cls-6{fill:#fff;}.cls-7{fill:aqua;}.cls-8{fill:#6052bd;}.cls-9{fill:#0093b9;}.cls-10{fill:#aeafaf;}.cls-11{fill:#232323;}</style></defs><rect class="cls-1" width="180" height="16"/><rect class="cls-2" x="1" y="1" width="178" height="14"/><rect class="cls-3" x="23" y="6" width="1" height="1"/><rect class="cls-3" x="23" y="10" width="1" height="1"/><rect class="cls-3" x="25" y="6" width="1" height="1"/><rect class="cls-3" x="25" y="10" width="1" height="1"/><rect class="cls-4" x="27" y="6" width="1" height="1"/><rect class="cls-3" x="27" y="10" width="1" height="1"/><rect class="cls-4" x="29" y="6" width="1" height="1"/><rect class="cls-4" x="29" y="10" width="1" height="1"/><rect class="cls-4" x="31" y="6" width="1" height="1"/><rect class="cls-3" x="23" y="4" width="1" height="1"/><rect class="cls-3" x="25" y="4" width="1" height="1"/><rect class="cls-4" x="27" y="4" width="1" height="1"/><rect class="cls-4" x="29" y="4" width="1" height="1"/><rect class="cls-4" x="31" y="4" width="1" height="1"/><rect class="cls-4" x="31" y="10" width="1" height="1"/><rect class="cls-4" x="23" y="12" width="1" height="1"/><rect class="cls-4" x="25" y="12" width="1" height="1"/><rect class="cls-4" x="27" y="12" width="1" height="1"/><rect class="cls-4" x="29" y="12" width="1" height="1"/><rect class="cls-4" x="31" y="12" width="1" height="1"/><rect class="cls-4" x="33" y="6" width="1" height="1"/><rect class="cls-4" x="33" y="4" width="1" height="1"/><rect class="cls-4" x="33" y="10" width="1" height="1"/><rect class="cls-4" x="33" y="12" width="1" height="1"/><rect class="cls-4" x="35" y="6" width="1" height="1"/><rect class="cls-4" x="35" y="4" width="1" height="1"/><rect class="cls-4" x="35" y="10" width="1" height="1"/><rect class="cls-4" x="35" y="12" width="1" height="1"/><rect class="cls-4" x="37" y="6" width="1" height="1"/><rect class="cls-4" x="37" y="4" width="1" height="1"/><rect class="cls-4" x="37" y="10" width="1" height="1"/><rect class="cls-4" x="37" y="12" width="1" height="1"/><rect class="cls-4" x="39" y="6" width="1" height="1"/><rect class="cls-4" x="39" y="4" width="1" height="1"/><rect class="cls-4" x="39" y="10" width="1" height="1"/><rect class="cls-4" x="39" y="12" width="1" height="1"/><rect class="cls-4" x="41" y="6" width="1" height="1"/><rect class="cls-4" x="41" y="4" width="1" height="1"/><rect class="cls-4" x="41" y="10" width="1" height="1"/><rect class="cls-4" x="41" y="12" width="1" height="1"/><rect class="cls-4" x="43" y="6" width="1" height="1"/><rect class="cls-4" x="43" y="4" width="1" height="1"/><rect class="cls-4" x="43" y="10" width="1" height="1"/><rect class="cls-4" x="43" y="12" width="1" height="1"/><rect class="cls-4" x="45" y="6" width="1" height="1"/><rect class="cls-4" x="45" y="4" width="1" height="1"/><rect class="cls-5" x="48" y="1" width="1" height="14"/><rect class="cls-5" x="51" y="2" width="1" height="12"/><rect class="cls-5" x="53" y="2" width="1" height="12"/><rect class="cls-5" x="55" y="2" width="1" height="12"/><rect class="cls-5" x="57" y="2" width="1" height="12"/><rect class="cls-5" x="59" y="2" width="1" height="12"/><rect class="cls-5" x="61" y="2" width="1" height="12"/><rect class="cls-5" x="63" y="2" width="1" height="12"/><rect class="cls-5" x="65" y="2" width="1" height="12"/><rect class="cls-5" x="67" y="2" width="1" height="12"/><rect class="cls-5" x="69" y="2" width="1" height="12"/><rect class="cls-5" x="71" y="2" width="1" height="12"/><rect class="cls-5" x="73" y="2" width="1" height="12"/><rect class="cls-5" x="75" y="2" width="1" height="12"/><rect class="cls-5" x="77" y="2" width="1" height="12"/><rect class="cls-5" x="79" y="2" width="1" height="12"/><rect class="cls-5" x="81" y="2" width="1" height="12"/><rect class="cls-5" x="83" y="2" width="1" height="12"/><rect class="cls-5" x="85" y="2" width="1" height="12"/><rect class="cls-4" x="45" y="10" width="1" height="1"/><rect class="cls-4" x="45" y="12" width="1" height="1"/><path class="cls-6" d="M4.4,5V4H5a.31.31,0,0,1,.15.1.32.32,0,0,1,.06.2.34.34,0,0,1-.12.26.22.22,0,0,1-.11,0H4.6V5Zm.2-.85v.29h.12l.16,0s0,0,.06,0a.11.11,0,0,0,0-.08.18.18,0,0,0,0-.09.12.12,0,0,0-.08,0H4.6Z"/><path class="cls-6" d="M5.39,4.53a.68.68,0,0,1,0-.26.45.45,0,0,1,.1-.14A.38.38,0,0,1,5.66,4a.51.51,0,0,1,.22,0,.49.49,0,0,1,.36.14.53.53,0,0,1,.14.39.56.56,0,0,1-.14.39.53.53,0,0,1-.72,0,.54.54,0,0,1-.13-.39Zm.21,0a.35.35,0,0,0,.08.26.25.25,0,0,0,.2.09.24.24,0,0,0,.2-.09.36.36,0,0,0,.08-.27.4.4,0,0,0-.07-.26.26.26,0,0,0-.21-.08.24.24,0,0,0-.2.08A.36.36,0,0,0,5.6,4.53Z"/><polygon class="cls-6" points="6.76 5.04 6.52 4.02 6.73 4.02 6.88 4.72 7.07 4.02 7.31 4.02 7.49 4.73 7.65 4.02 7.86 4.02 7.61 5.04 7.39 5.04 7.19 4.28 6.98 5.04 6.76 5.04"/><polygon class="cls-6" points="8.04 5.04 8.04 4.02 8.8 4.02 8.8 4.19 8.25 4.19 8.25 4.42 8.76 4.42 8.76 4.59 8.25 4.59 8.25 4.87 8.82 4.87 8.82 5.04 8.04 5.04"/><path class="cls-6" d="M9.07,5V4h.44a.7.7,0,0,1,.24,0,.17.17,0,0,1,.11.09.3.3,0,0,1,.05.16.25.25,0,0,1-.07.19.34.34,0,0,1-.2.1.31.31,0,0,1,.11.08,1.12,1.12,0,0,1,.12.17L10,5H9.74L9.6,4.82l-.11-.15a.13.13,0,0,0-.06,0H9.28V5Zm.21-.59h.34l.06-.05a.14.14,0,0,0,0-.07.12.12,0,0,0,0-.09.2.2,0,0,0-.08,0H9.28Z"/><path class="cls-6" d="M7,7V6H7.4a.63.63,0,0,1,.23,0,.27.27,0,0,1,.12.09.31.31,0,0,1,0,.17.32.32,0,0,1-.07.19.31.31,0,0,1-.2.09.48.48,0,0,1,.11.09l.11.16.13.2H7.63L7.48,6.8l-.1-.15a.1.1,0,0,0-.07,0l-.1,0h0V7Zm.21-.59h.34l.06,0a.19.19,0,0,0,0-.08.11.11,0,0,0,0-.08.12.12,0,0,0-.08,0H7.17v.26Z"/><path class="cls-6" d="M8.07,6h.2v.55c0,.09,0,.15,0,.17a.14.14,0,0,0,.06.1.21.21,0,0,0,.14,0,.29.29,0,0,0,.14,0,.41.41,0,0,0,.05-.09s0-.09,0-.18V6h.2v.54a1.71,1.71,0,0,1,0,.26.34.34,0,0,1-.06.12A.27.27,0,0,1,8.69,7a.6.6,0,0,1-.2,0,.43.43,0,0,1-.22,0,.36.36,0,0,1-.12-.08.34.34,0,0,1-.06-.12.86.86,0,0,1,0-.25Z"/><polygon class="cls-6" points="9.18 7.02 9.18 6 9.38 6 9.8 6.68 9.8 6 9.99 6 9.99 7.02 9.79 7.02 9.37 6.35 9.37 7.02 9.18 7.02"/><polygon class="cls-6" points="7.47 11.04 7.47 10.02 7.78 10.02 7.96 10.71 8.14 10.02 8.46 10.02 8.46 11.04 8.26 11.04 8.26 10.23 8.06 11.04 7.86 11.04 7.66 10.23 7.66 11.04 7.47 11.04"/><polygon class="cls-6" points="8.63 11.06 8.88 10 9.03 10 8.78 11.06 8.63 11.06"/><path class="cls-6" d="M9.16,10.71l.2,0a.35.35,0,0,0,.07.15.33.33,0,0,0,.15,0,.21.21,0,0,0,.15,0,.11.11,0,0,0,0-.1.07.07,0,0,0,0-.06s0,0-.07,0l-.17,0a.55.55,0,0,1-.23-.1.29.29,0,0,1-.09-.21.23.23,0,0,1,0-.14A.28.28,0,0,1,9.37,10a.6.6,0,0,1,.2,0,.46.46,0,0,1,.29.08.31.31,0,0,1,.1.23h-.2a.17.17,0,0,0-.19-.15.2.2,0,0,0-.14,0,.07.07,0,0,0,0,.12.35.35,0,0,0,.18.07,1,1,0,0,1,.23.08.27.27,0,0,1,.11.1.27.27,0,0,1,0,.16.34.34,0,0,1-.05.17A.26.26,0,0,1,9.8,11a.48.48,0,0,1-.22,0,.45.45,0,0,1-.3-.09A.49.49,0,0,1,9.16,10.71Z"/><polygon class="cls-6" points="7.2 13.02 7.2 12 7.9 12 7.9 12.17 7.41 12.17 7.41 12.41 7.83 12.41 7.83 12.59 7.41 12.59 7.41 13.02 7.2 13.02"/><path class="cls-6" d="M9,13H8.77l-.09-.23H8.27L8.19,13H8l.39-1h.22L9,13Zm-.38-.4-.14-.38-.14.38Z"/><polygon class="cls-6" points="9.18 13.02 9.18 12 9.38 12 9.8 12.68 9.8 12 9.99 12 9.99 13.02 9.79 13.02 9.37 12.35 9.37 13.02 9.18 13.02"/><rect class="cls-3" x="11" y="6" width="1" height="1"/><rect class="cls-4" x="11" y="10" width="1" height="1"/><rect class="cls-7" x="11" y="4" width="1" height="1"/><rect class="cls-4" x="11" y="12" width="1" height="1"/><polygon class="cls-8" points="21 8 17 8 17 6 21 6 22 7.08 21 8"/><polygon class="cls-9" points="21 5 17 5 17 3 21 3 22 4.08 21 5"/><polygon class="cls-9" points="21 11 17 11 17 9 21 9 22 10 21 11"/><polygon class="cls-8" points="21 14 17 14 17 12 21 12 22 13 21 14"/><polygon class="cls-6" points="17.4 4.47 17.4 3.5 17.6 3.5 17.6 4.3 18.09 4.3 18.09 4.47 17.4 4.47"/><rect class="cls-6" x="18.3" y="3.49" width="0.2" height="0.98"/><polygon class="cls-6" points="18.77 4.47 18.77 3.49 18.96 3.49 19.36 4.14 19.36 3.49 19.55 3.49 19.55 4.47 19.35 4.47 18.95 3.83 18.95 4.47 18.77 4.47"/><polygon class="cls-6" points="19.84 4.47 19.84 3.49 20.03 3.49 20.03 3.92 20.43 3.49 20.7 3.49 20.33 3.87 20.72 4.47 20.46 4.47 20.2 4.01 20.03 4.17 20.03 4.47 19.84 4.47"/><path class="cls-6" d="M18.52,7.51h-.21l-.09-.23h-.39l-.08.23h-.21l.38-1h.21l.39,1Zm-.36-.39L18,6.75l-.13.37Z"/><path class="cls-6" d="M19.33,7.15l.19.06a.57.57,0,0,1-.14.24.44.44,0,0,1-.26.07.43.43,0,0,1-.33-.13.63.63,0,0,1,0-.75.42.42,0,0,1,.33-.13.39.39,0,0,1,.29.1.39.39,0,0,1,.1.19l-.2,0a.19.19,0,0,0-.2-.16.22.22,0,0,0-.18.08.39.39,0,0,0-.07.25.43.43,0,0,0,.07.26.2.2,0,0,0,.17.08.17.17,0,0,0,.14,0A.27.27,0,0,0,19.33,7.15Z"/><polygon class="cls-6" points="19.99 7.51 19.99 6.69 19.7 6.69 19.7 6.53 20.48 6.53 20.48 6.69 20.19 6.69 20.19 7.51 19.99 7.51"/><polygon class="cls-6" points="17.4 10.49 17.4 9.52 17.6 9.52 17.6 10.32 18.09 10.32 18.09 10.49 17.4 10.49"/><rect class="cls-6" x="18.3" y="9.51" width="0.2" height="0.98"/><polygon class="cls-6" points="18.77 10.49 18.77 9.51 18.96 9.51 19.36 10.16 19.36 9.51 19.55 9.51 19.55 10.49 19.35 10.49 18.95 9.85 18.95 10.49 18.77 10.49"/><polygon class="cls-6" points="19.84 10.49 19.84 9.51 20.03 9.51 20.03 9.94 20.43 9.51 20.7 9.51 20.33 9.89 20.72 10.49 20.46 10.49 20.2 10.03 20.03 10.19 20.03 10.49 19.84 10.49"/><path class="cls-6" d="M18.52,13.49h-.21l-.09-.22h-.39l-.08.22h-.21l.38-1h.21l.39,1Zm-.36-.39L18,12.74l-.13.36Z"/><path class="cls-6" d="M19.33,13.13l.19.06a.46.46,0,0,1-.14.24.45.45,0,0,1-.26.08.44.44,0,0,1-.33-.14.52.52,0,0,1-.12-.36.52.52,0,0,1,.13-.38.42.42,0,0,1,.33-.14.4.4,0,0,1,.29.11.32.32,0,0,1,.1.18l-.2.05a.16.16,0,0,0-.07-.12.19.19,0,0,0-.13-.05.25.25,0,0,0-.18.08.41.41,0,0,0-.07.25.44.44,0,0,0,.07.27.23.23,0,0,0,.17.08.22.22,0,0,0,.14-.05A.3.3,0,0,0,19.33,13.13Z"/><polygon class="cls-6" points="19.99 13.49 19.99 12.68 19.7 12.68 19.7 12.51 20.48 12.51 20.48 12.68 20.19 12.68 20.19 13.49 19.99 13.49"/><rect class="cls-10" x="89" y="2" width="8" height="6"/><polygon class="cls-11" points="94 3 92 3 92 4 90 4 90 7 96 7 96 4 94 4 94 3"/><rect class="cls-10" x="89" y="8" width="8" height="6"/><polygon class="cls-11" points="94 13 92 13 92 12 90 12 90 9 96 9 96 12 94 12 94 13"/><rect class="cls-10" x="102" y="2" width="6" height="6"/><polygon class="cls-11" points="106 3 104 3 104 4 103 4 103 7 107 7 107 4 106 4 106 3"/><rect class="cls-10" x="102" y="8" width="6" height="6"/><polygon class="cls-11" points="106 13 104 13 104 12 103 12 103 9 107 9 107 12 106 12 106 13"/><rect class="cls-10" x="108" y="2" width="6" height="6"/><polygon class="cls-11" points="112 3 110 3 110 4 109 4 109 7 113 7 113 4 112 4 112 3"/><rect class="cls-10" x="108" y="8" width="6" height="6"/><polygon class="cls-11" points="112 13 110 13 110 12 109 12 109 9 113 9 113 12 112 12 112 13"/><rect class="cls-10" x="114" y="2" width="6" height="6"/><polygon class="cls-11" points="118 3 116 3 116 4 115 4 115 7 119 7 119 4 118 4 118 3"/><rect class="cls-10" x="114" y="8" width="6" height="6"/><polygon class="cls-11" points="118 13 116 13 116 12 115 12 115 9 119 9 119 12 118 12 118 13"/><rect class="cls-10" x="120" y="2" width="6" height="6"/><polygon class="cls-11" points="124 3 122 3 122 4 121 4 121 7 125 7 125 4 124 4 124 3"/><rect class="cls-10" x="120" y="8" width="6" height="6"/><polygon class="cls-11" points="124 13 122 13 122 12 121 12 121 9 125 9 125 12 124 12 124 13"/><rect class="cls-10" x="126" y="2" width="6" height="6"/><polygon class="cls-11" points="130 3 128 3 128 4 127 4 127 7 131 7 131 4 130 4 130 3"/><rect class="cls-10" x="126" y="8" width="6" height="6"/><polygon class="cls-11" points="130 13 128 13 128 12 127 12 127 9 131 9 131 12 130 12 130 13"/><rect class="cls-10" x="132" y="2" width="6" height="6"/><polygon class="cls-11" points="136 3 134 3 134 4 133 4 133 7 137 7 137 4 136 4 136 3"/><rect class="cls-10" x="132" y="8" width="6" height="6"/><polygon class="cls-11" points="136 13 134 13 134 12 133 12 133 9 137 9 137 12 136 12 136 13"/><rect class="cls-10" x="140" y="2" width="6" height="6"/><polygon class="cls-11" points="144 3 142 3 142 4 141 4 141 7 145 7 145 4 144 4 144 3"/><rect class="cls-10" x="140" y="8" width="6" height="6"/><polygon class="cls-11" points="144 13 142 13 142 12 141 12 141 9 145 9 145 12 144 12 144 13"/><rect class="cls-10" x="146" y="2" width="6" height="6"/><polygon class="cls-11" points="150 3 148 3 148 4 147 4 147 7 151 7 151 4 150 4 150 3"/><rect class="cls-10" x="146" y="8" width="6" height="6"/><polygon class="cls-11" points="150 13 148 13 148 12 147 12 147 9 151 9 151 12 150 12 150 13"/><rect class="cls-10" x="152" y="2" width="6" height="6"/><polygon class="cls-11" points="156 3 154 3 154 4 153 4 153 7 157 7 157 4 156 4 156 3"/><rect class="cls-10" x="152" y="8" width="6" height="6"/><polygon class="cls-11" points="156 13 154 13 154 12 153 12 153 9 157 9 157 12 156 12 156 13"/><rect class="cls-10" x="158" y="2" width="6" height="6"/><polygon class="cls-11" points="162 3 160 3 160 4 159 4 159 7 163 7 163 4 162 4 162 3"/><rect class="cls-10" x="158" y="8" width="6" height="6"/><polygon class="cls-11" points="162 13 160 13 160 12 159 12 159 9 163 9 163 12 162 12 162 13"/><rect class="cls-10" x="164" y="2" width="6" height="6"/><polygon class="cls-11" points="168 3 166 3 166 4 165 4 165 7 169 7 169 4 168 4 168 3"/><rect class="cls-10" x="164" y="8" width="6" height="6"/><polygon class="cls-11" points="168 13 166 13 166 12 165 12 165 9 169 9 169 12 168 12 168 13"/><rect class="cls-10" x="170" y="2" width="6" height="6"/><polygon class="cls-11" points="174 3 172 3 172 4 171 4 171 7 175 7 175 4 174 4 174 3"/><rect class="cls-10" x="170" y="8" width="6" height="6"/><polygon class="cls-11" points="174 13 172 13 172 12 171 12 171 9 175 9 175 12 174 12 174 13"/></svg>