<svg id="图层_1" data-name="图层 1" xmlns="http://www.w3.org/2000/svg" viewBox="0 0 180 16"><defs><style>.cls-1{fill:#282828;}.cls-2{fill:#444;}.cls-3{fill:#727171;}.cls-4{fill:lime;}.cls-5{fill:#e5e5e5;}.cls-6{fill:#231815;}.cls-7{fill:#0093b9;}.cls-8{fill:#6052bd;}.cls-9{fill:#fff;}</style></defs><rect class="cls-1" width="180" height="16"/><rect class="cls-2" width="180" height="2"/><rect x="1" y="1" width="178" height="1"/><path class="cls-3" d="M28,2H1V15H13C18,15,29,3,40,3H179V2Z"/><path class="cls-3" d="M146,15h33V2H161c-5,0-16,12-27,12H1v1Z"/><rect class="cls-4" x="70" y="7" width="1" height="1"/><rect class="cls-4" x="70" y="10" width="1" height="1"/><rect class="cls-4" x="73" y="7" width="1" height="1"/><rect class="cls-4" x="73" y="10" width="1" height="1"/><rect class="cls-5" x="86" y="7" width="1" height="1"/><rect class="cls-5" x="86" y="10" width="1" height="1"/><rect class="cls-5" x="89" y="7" width="1" height="1"/><rect class="cls-5" x="89" y="10" width="1" height="1"/><rect class="cls-5" x="92" y="7" width="1" height="1"/><rect class="cls-5" x="92" y="10" width="1" height="1"/><rect class="cls-5" x="95" y="7" width="1" height="1"/><rect class="cls-5" x="95" y="10" width="1" height="1"/><rect class="cls-5" x="98" y="7" width="1" height="1"/><rect class="cls-5" x="98" y="10" width="1" height="1"/><rect class="cls-4" x="106" y="7" width="1" height="1"/><rect class="cls-4" x="106" y="10" width="1" height="1"/><rect class="cls-4" x="109" y="7" width="1" height="1"/><rect class="cls-4" x="109" y="10" width="1" height="1"/><rect class="cls-6" x="114" y="9" width="1" height="1"/><polygon class="cls-7" points="84 8 80 8 80 6 84 6 85 7.08 84 8"/><polygon class="cls-8" points="84 12 80 12 80 10 84 10 85 11 84 12"/><polygon class="cls-9" points="80.55 7.46 80.55 6.51 80.74 6.51 80.74 7.3 81.22 7.3 81.22 7.46 80.55 7.46"/><rect class="cls-9" x="81.43" y="6.5" width="0.19" height="0.96"/><polygon class="cls-9" points="81.88 7.46 81.88 6.5 82.07 6.5 82.46 7.14 82.46 6.5 82.64 6.5 82.64 7.46 82.45 7.46 82.06 6.83 82.06 7.46 81.88 7.46"/><polygon class="cls-9" points="82.92 7.46 82.92 6.5 83.12 6.5 83.12 6.92 83.51 6.5 83.77 6.5 83.41 6.87 83.79 7.46 83.54 7.46 83.27 7.01 83.12 7.17 83.12 7.46 82.92 7.46"/><path class="cls-9" d="M81.64,11.48h-.21l-.08-.22H81l-.08.22h-.21l.37-1h.21l.38,1Zm-.35-.38-.14-.36L81,11.1Z"/><path class="cls-9" d="M82.43,11.13l.19.06a.48.48,0,0,1-.14.23.42.42,0,0,1-.26.07.41.41,0,0,1-.31-.12.52.52,0,0,1-.12-.36.53.53,0,0,1,.12-.37.46.46,0,0,1,.61,0,.5.5,0,0,1,.1.18l-.19,0a.25.25,0,0,0-.08-.12.22.22,0,0,0-.13,0,.21.21,0,0,0-.17.08A.38.38,0,0,0,82,11a.43.43,0,0,0,.07.26.19.19,0,0,0,.17.08.19.19,0,0,0,.13-.05A.27.27,0,0,0,82.43,11.13Z"/><polygon class="cls-9" points="83.08 11.48 83.08 10.68 82.79 10.68 82.79 10.52 83.55 10.52 83.55 10.68 83.27 10.68 83.27 11.48 83.08 11.48"/></svg>