<svg id="图层_1" data-name="图层 1" xmlns="http://www.w3.org/2000/svg" xmlns:xlink="http://www.w3.org/1999/xlink" viewBox="0 0 180 34"><defs><style>.cls-1{fill:#444;}.cls-2{fill:#191919;}.cls-3{fill:#b7b7b7;}.cls-4{fill:#595757;}.cls-5{fill:#3e3a39;}.cls-6{fill:#727171;}.cls-7{fill:#353535;}.cls-8{fill:lime;}.cls-9{fill:#333;}.cls-10{fill:#595959;}.cls-11{fill:#828282;}.cls-12{fill:#3a3a3a;}.cls-13{fill:#232323;}.cls-14{fill:#727272;}.cls-15{fill:#4f4f4f;}.cls-16{fill:#383838;}.cls-17{fill:aqua;}.cls-18{fill:#5e6169;}.cls-19{fill:#1c1c1c;}.cls-20{fill:url(#未命名的渐变_2);}</style><linearGradient id="未命名的渐变_2" x1="72" y1="243" x2="74" y2="243" gradientTransform="matrix(1, 0, 0, -1, 0, 246)" gradientUnits="userSpaceOnUse"><stop offset="0" stop-color="#595757"/><stop offset="1" stop-color="#898989"/></linearGradient></defs><rect class="cls-1" x="6" width="168" height="34"/><rect class="cls-1" width="180" height="34"/><rect class="cls-2" x="7" y="8" width="166" height="26"/><rect class="cls-3" x="7" y="21" width="166" height="1"/><rect class="cls-3" x="7" y="8" width="166" height="1"/><rect class="cls-3" x="172" y="8" width="1" height="26"/><rect class="cls-3" x="7" y="8" width="1" height="26"/><rect class="cls-3" x="62" y="8" width="1" height="26"/><rect class="cls-3" x="117" y="8" width="1" height="26"/><rect class="cls-4" x="119" y="23" width="4" height="11"/><rect class="cls-4" x="132" y="23" width="29" height="11"/><rect class="cls-5" x="123" y="23" width="1" height="11"/><rect class="cls-6" x="131" y="23" width="1" height="11"/><rect class="cls-4" x="124" y="23" width="7" height="11"/><rect class="cls-7" x="161" y="23" width="10" height="11"/><circle class="cls-8" cx="127.5" cy="28.5" r="2"/><path d="M127.5,27a1.5,1.5,0,1,1-1.5,1.5,1.5,1.5,0,0,1,1.5-1.5m0-1a2.5,2.5,0,1,0,2.5,2.5,2.5,2.5,0,0,0-2.5-2.5Z"/><rect class="cls-9" x="124" y="24" width="7" height="1"/><rect class="cls-9" x="124" y="32" width="7" height="1"/><rect x="133" y="24" width="6" height="9"/><rect x="140" y="24" width="6" height="9"/><rect x="147" y="24" width="6" height="9"/><rect x="154" y="24" width="6" height="9"/><rect class="cls-10" x="162" y="24" width="8" height="9"/><rect class="cls-3" x="163" y="25" width="6" height="7"/><rect x="163" y="28" width="6" height="4"/><polygon class="cls-11" points="161 23 162 24 162 33 161 34 161 23"/><polygon class="cls-12" points="171 23 170 24 170 33 171 34 171 23"/><polygon class="cls-13" points="161 34 162 33 170 33 171 34 161 34"/><rect class="cls-14" x="136" y="25" width="1" height="1"/><rect class="cls-14" x="138" y="25" width="1" height="1"/><rect class="cls-14" x="136" y="27" width="1" height="1"/><rect class="cls-14" x="138" y="27" width="1" height="1"/><rect class="cls-14" x="136" y="29" width="1" height="1"/><rect class="cls-14" x="138" y="29" width="1" height="1"/><rect class="cls-14" x="136" y="31" width="1" height="1"/><rect class="cls-14" x="134" y="25" width="1" height="1"/><rect class="cls-14" x="134" y="27" width="1" height="1"/><rect class="cls-14" x="134" y="29" width="1" height="1"/><rect class="cls-14" x="134" y="31" width="1" height="1"/><rect class="cls-14" x="138" y="31" width="1" height="1"/><rect class="cls-14" x="143" y="25" width="1" height="1"/><rect class="cls-14" x="145" y="25" width="1" height="1"/><rect class="cls-14" x="143" y="27" width="1" height="1"/><rect class="cls-14" x="145" y="27" width="1" height="1"/><rect class="cls-14" x="143" y="29" width="1" height="1"/><rect class="cls-14" x="145" y="29" width="1" height="1"/><rect class="cls-14" x="143" y="31" width="1" height="1"/><rect class="cls-14" x="141" y="25" width="1" height="1"/><rect class="cls-14" x="141" y="27" width="1" height="1"/><rect class="cls-14" x="141" y="29" width="1" height="1"/><rect class="cls-14" x="141" y="31" width="1" height="1"/><rect class="cls-14" x="145" y="31" width="1" height="1"/><rect class="cls-14" x="150" y="25" width="1" height="1"/><rect class="cls-14" x="152" y="25" width="1" height="1"/><rect class="cls-14" x="150" y="27" width="1" height="1"/><rect class="cls-14" x="152" y="27" width="1" height="1"/><rect class="cls-14" x="150" y="29" width="1" height="1"/><rect class="cls-14" x="152" y="29" width="1" height="1"/><rect class="cls-14" x="150" y="31" width="1" height="1"/><rect class="cls-14" x="148" y="25" width="1" height="1"/><rect class="cls-14" x="148" y="27" width="1" height="1"/><rect class="cls-14" x="148" y="29" width="1" height="1"/><rect class="cls-14" x="148" y="31" width="1" height="1"/><rect class="cls-14" x="152" y="31" width="1" height="1"/><rect class="cls-14" x="157" y="25" width="1" height="1"/><rect class="cls-14" x="159" y="25" width="1" height="1"/><rect class="cls-14" x="157" y="27" width="1" height="1"/><rect class="cls-14" x="159" y="27" width="1" height="1"/><rect class="cls-14" x="157" y="29" width="1" height="1"/><rect class="cls-14" x="159" y="29" width="1" height="1"/><rect class="cls-14" x="157" y="31" width="1" height="1"/><rect class="cls-14" x="155" y="25" width="1" height="1"/><rect class="cls-14" x="155" y="27" width="1" height="1"/><rect class="cls-14" x="155" y="29" width="1" height="1"/><rect class="cls-14" x="155" y="31" width="1" height="1"/><rect class="cls-14" x="159" y="31" width="1" height="1"/><rect class="cls-4" x="64" y="23" width="4" height="11"/><rect class="cls-4" x="77" y="23" width="29" height="11"/><rect class="cls-5" x="68" y="23" width="1" height="11"/><rect class="cls-6" x="76" y="23" width="1" height="11"/><rect class="cls-4" x="69" y="23" width="7" height="11"/><rect class="cls-7" x="106" y="23" width="10" height="11"/><circle class="cls-8" cx="72.5" cy="28.5" r="2"/><path d="M72.5,27A1.5,1.5,0,1,1,71,28.5,1.5,1.5,0,0,1,72.5,27m0-1A2.5,2.5,0,1,0,75,28.5,2.5,2.5,0,0,0,72.5,26Z"/><rect class="cls-9" x="69" y="24" width="7" height="1"/><rect class="cls-9" x="69" y="32" width="7" height="1"/><rect x="78" y="24" width="6" height="9"/><rect x="85" y="24" width="6" height="9"/><rect x="92" y="24" width="6" height="9"/><rect x="99" y="24" width="6" height="9"/><rect class="cls-10" x="107" y="24" width="8" height="9"/><rect class="cls-3" x="108" y="25" width="6" height="7"/><rect x="108" y="28" width="6" height="4"/><polygon class="cls-11" points="106 23 107 24 107 33 106 34 106 23"/><polygon class="cls-12" points="116 23 115 24 115 33 116 34 116 23"/><polygon class="cls-13" points="106 34 107 33 115 33 116 34 106 34"/><rect class="cls-14" x="81" y="25" width="1" height="1"/><rect class="cls-14" x="83" y="25" width="1" height="1"/><rect class="cls-14" x="81" y="27" width="1" height="1"/><rect class="cls-14" x="83" y="27" width="1" height="1"/><rect class="cls-14" x="81" y="29" width="1" height="1"/><rect class="cls-14" x="83" y="29" width="1" height="1"/><rect class="cls-14" x="81" y="31" width="1" height="1"/><rect class="cls-14" x="79" y="25" width="1" height="1"/><rect class="cls-14" x="79" y="27" width="1" height="1"/><rect class="cls-14" x="79" y="29" width="1" height="1"/><rect class="cls-14" x="79" y="31" width="1" height="1"/><rect class="cls-14" x="83" y="31" width="1" height="1"/><rect class="cls-14" x="88" y="25" width="1" height="1"/><rect class="cls-14" x="90" y="25" width="1" height="1"/><rect class="cls-14" x="88" y="27" width="1" height="1"/><rect class="cls-14" x="90" y="27" width="1" height="1"/><rect class="cls-14" x="88" y="29" width="1" height="1"/><rect class="cls-14" x="90" y="29" width="1" height="1"/><rect class="cls-14" x="88" y="31" width="1" height="1"/><rect class="cls-14" x="86" y="25" width="1" height="1"/><rect class="cls-14" x="86" y="27" width="1" height="1"/><rect class="cls-14" x="86" y="29" width="1" height="1"/><rect class="cls-14" x="86" y="31" width="1" height="1"/><rect class="cls-14" x="90" y="31" width="1" height="1"/><rect class="cls-14" x="95" y="25" width="1" height="1"/><rect class="cls-14" x="97" y="25" width="1" height="1"/><rect class="cls-14" x="95" y="27" width="1" height="1"/><rect class="cls-14" x="97" y="27" width="1" height="1"/><rect class="cls-14" x="95" y="29" width="1" height="1"/><rect class="cls-14" x="97" y="29" width="1" height="1"/><rect class="cls-14" x="95" y="31" width="1" height="1"/><rect class="cls-14" x="93" y="25" width="1" height="1"/><rect class="cls-14" x="93" y="27" width="1" height="1"/><rect class="cls-14" x="93" y="29" width="1" height="1"/><rect class="cls-14" x="93" y="31" width="1" height="1"/><rect class="cls-14" x="97" y="31" width="1" height="1"/><rect class="cls-14" x="102" y="25" width="1" height="1"/><rect class="cls-14" x="104" y="25" width="1" height="1"/><rect class="cls-14" x="102" y="27" width="1" height="1"/><rect class="cls-14" x="104" y="27" width="1" height="1"/><rect class="cls-14" x="102" y="29" width="1" height="1"/><rect class="cls-14" x="104" y="29" width="1" height="1"/><rect class="cls-14" x="102" y="31" width="1" height="1"/><rect class="cls-14" x="100" y="25" width="1" height="1"/><rect class="cls-14" x="100" y="27" width="1" height="1"/><rect class="cls-14" x="100" y="29" width="1" height="1"/><rect class="cls-14" x="100" y="31" width="1" height="1"/><rect class="cls-14" x="104" y="31" width="1" height="1"/><rect class="cls-4" x="9" y="23" width="4" height="11"/><rect class="cls-4" x="22" y="23" width="29" height="11"/><rect class="cls-5" x="13" y="23" width="1" height="11"/><rect class="cls-6" x="21" y="23" width="1" height="11"/><rect class="cls-4" x="14" y="23" width="7" height="11"/><rect class="cls-7" x="51" y="23" width="10" height="11"/><circle class="cls-8" cx="17.5" cy="28.5" r="2"/><path d="M17.5,27A1.5,1.5,0,1,1,16,28.5,1.5,1.5,0,0,1,17.5,27m0-1A2.5,2.5,0,1,0,20,28.5,2.5,2.5,0,0,0,17.5,26Z"/><rect class="cls-9" x="14" y="24" width="7" height="1"/><rect class="cls-9" x="14" y="32" width="7" height="1"/><rect x="23" y="24" width="6" height="9"/><rect x="30" y="24" width="6" height="9"/><rect x="37" y="24" width="6" height="9"/><rect x="44" y="24" width="6" height="9"/><rect class="cls-10" x="52" y="24" width="8" height="9"/><rect class="cls-3" x="53" y="25" width="6" height="7"/><rect x="53" y="28" width="6" height="4"/><polygon class="cls-11" points="51 23 52 24 52 33 51 34 51 23"/><polygon class="cls-12" points="61 23 60 24 60 33 61 34 61 23"/><polygon class="cls-13" points="51 34 52 33 60 33 61 34 51 34"/><rect class="cls-14" x="26" y="25" width="1" height="1"/><rect class="cls-14" x="28" y="25" width="1" height="1"/><rect class="cls-14" x="26" y="27" width="1" height="1"/><rect class="cls-14" x="28" y="27" width="1" height="1"/><rect class="cls-14" x="26" y="29" width="1" height="1"/><rect class="cls-14" x="28" y="29" width="1" height="1"/><rect class="cls-14" x="26" y="31" width="1" height="1"/><rect class="cls-14" x="24" y="25" width="1" height="1"/><rect class="cls-14" x="24" y="27" width="1" height="1"/><rect class="cls-14" x="24" y="29" width="1" height="1"/><rect class="cls-14" x="24" y="31" width="1" height="1"/><rect class="cls-14" x="28" y="31" width="1" height="1"/><rect class="cls-14" x="33" y="25" width="1" height="1"/><rect class="cls-14" x="35" y="25" width="1" height="1"/><rect class="cls-14" x="33" y="27" width="1" height="1"/><rect class="cls-14" x="35" y="27" width="1" height="1"/><rect class="cls-14" x="33" y="29" width="1" height="1"/><rect class="cls-14" x="35" y="29" width="1" height="1"/><rect class="cls-14" x="33" y="31" width="1" height="1"/><rect class="cls-14" x="31" y="25" width="1" height="1"/><rect class="cls-14" x="31" y="27" width="1" height="1"/><rect class="cls-14" x="31" y="29" width="1" height="1"/><rect class="cls-14" x="31" y="31" width="1" height="1"/><rect class="cls-14" x="35" y="31" width="1" height="1"/><rect class="cls-14" x="40" y="25" width="1" height="1"/><rect class="cls-14" x="42" y="25" width="1" height="1"/><rect class="cls-14" x="40" y="27" width="1" height="1"/><rect class="cls-14" x="42" y="27" width="1" height="1"/><rect class="cls-14" x="40" y="29" width="1" height="1"/><rect class="cls-14" x="42" y="29" width="1" height="1"/><rect class="cls-14" x="40" y="31" width="1" height="1"/><rect class="cls-14" x="38" y="25" width="1" height="1"/><rect class="cls-14" x="38" y="27" width="1" height="1"/><rect class="cls-14" x="38" y="29" width="1" height="1"/><rect class="cls-14" x="38" y="31" width="1" height="1"/><rect class="cls-14" x="42" y="31" width="1" height="1"/><rect class="cls-14" x="47" y="25" width="1" height="1"/><rect class="cls-14" x="49" y="25" width="1" height="1"/><rect class="cls-14" x="47" y="27" width="1" height="1"/><rect class="cls-14" x="49" y="27" width="1" height="1"/><rect class="cls-14" x="47" y="29" width="1" height="1"/><rect class="cls-14" x="49" y="29" width="1" height="1"/><rect class="cls-14" x="47" y="31" width="1" height="1"/><rect class="cls-14" x="45" y="25" width="1" height="1"/><rect class="cls-14" x="45" y="27" width="1" height="1"/><rect class="cls-14" x="45" y="29" width="1" height="1"/><rect class="cls-14" x="45" y="31" width="1" height="1"/><rect class="cls-14" x="49" y="31" width="1" height="1"/><rect class="cls-4" x="119" y="9" width="4" height="11"/><rect class="cls-4" x="132" y="9" width="29" height="11"/><rect class="cls-5" x="123" y="9" width="1" height="11"/><rect class="cls-6" x="131" y="9" width="1" height="11"/><rect class="cls-4" x="124" y="9" width="7" height="11"/><rect class="cls-7" x="161" y="9" width="10" height="11"/><circle class="cls-8" cx="127.5" cy="14.5" r="2"/><path d="M127.5,13a1.5,1.5,0,1,1-1.5,1.5,1.5,1.5,0,0,1,1.5-1.5m0-1a2.5,2.5,0,1,0,2.5,2.5,2.5,2.5,0,0,0-2.5-2.5Z"/><rect class="cls-9" x="124" y="10" width="7" height="1"/><rect class="cls-9" x="124" y="18" width="7" height="1"/><rect x="133" y="10" width="6" height="9"/><rect x="140" y="10" width="6" height="9"/><rect x="147" y="10" width="6" height="9"/><rect x="154" y="10" width="6" height="9"/><rect class="cls-10" x="162" y="10" width="8" height="9"/><rect class="cls-3" x="163" y="11" width="6" height="7"/><rect x="163" y="14" width="6" height="4"/><polygon class="cls-11" points="161 9 162 10 162 19 161 20 161 9"/><polygon class="cls-12" points="171 9 170 10 170 19 171 20 171 9"/><polygon class="cls-13" points="161 20 162 19 170 19 171 20 161 20"/><rect class="cls-14" x="136" y="11" width="1" height="1"/><rect class="cls-14" x="138" y="11" width="1" height="1"/><rect class="cls-14" x="136" y="13" width="1" height="1"/><rect class="cls-14" x="138" y="13" width="1" height="1"/><rect class="cls-14" x="136" y="15" width="1" height="1"/><rect class="cls-14" x="138" y="15" width="1" height="1"/><rect class="cls-14" x="136" y="17" width="1" height="1"/><rect class="cls-14" x="134" y="11" width="1" height="1"/><rect class="cls-14" x="134" y="13" width="1" height="1"/><rect class="cls-14" x="134" y="15" width="1" height="1"/><rect class="cls-14" x="134" y="17" width="1" height="1"/><rect class="cls-14" x="138" y="17" width="1" height="1"/><rect class="cls-14" x="143" y="11" width="1" height="1"/><rect class="cls-14" x="145" y="11" width="1" height="1"/><rect class="cls-14" x="143" y="13" width="1" height="1"/><rect class="cls-14" x="145" y="13" width="1" height="1"/><rect class="cls-14" x="143" y="15" width="1" height="1"/><rect class="cls-14" x="145" y="15" width="1" height="1"/><rect class="cls-14" x="143" y="17" width="1" height="1"/><rect class="cls-14" x="141" y="11" width="1" height="1"/><rect class="cls-14" x="141" y="13" width="1" height="1"/><rect class="cls-14" x="141" y="15" width="1" height="1"/><rect class="cls-14" x="141" y="17" width="1" height="1"/><rect class="cls-14" x="145" y="17" width="1" height="1"/><rect class="cls-14" x="150" y="11" width="1" height="1"/><rect class="cls-14" x="152" y="11" width="1" height="1"/><rect class="cls-14" x="150" y="13" width="1" height="1"/><rect class="cls-14" x="152" y="13" width="1" height="1"/><rect class="cls-14" x="150" y="15" width="1" height="1"/><rect class="cls-14" x="152" y="15" width="1" height="1"/><rect class="cls-14" x="150" y="17" width="1" height="1"/><rect class="cls-14" x="148" y="11" width="1" height="1"/><rect class="cls-14" x="148" y="13" width="1" height="1"/><rect class="cls-14" x="148" y="15" width="1" height="1"/><rect class="cls-14" x="148" y="17" width="1" height="1"/><rect class="cls-14" x="152" y="17" width="1" height="1"/><rect class="cls-14" x="157" y="11" width="1" height="1"/><rect class="cls-14" x="159" y="11" width="1" height="1"/><rect class="cls-14" x="157" y="13" width="1" height="1"/><rect class="cls-14" x="159" y="13" width="1" height="1"/><rect class="cls-14" x="157" y="15" width="1" height="1"/><rect class="cls-14" x="159" y="15" width="1" height="1"/><rect class="cls-14" x="157" y="17" width="1" height="1"/><rect class="cls-14" x="155" y="11" width="1" height="1"/><rect class="cls-14" x="155" y="13" width="1" height="1"/><rect class="cls-14" x="155" y="15" width="1" height="1"/><rect class="cls-14" x="155" y="17" width="1" height="1"/><rect class="cls-14" x="159" y="17" width="1" height="1"/><rect class="cls-4" x="64" y="9" width="4" height="11"/><rect class="cls-4" x="77" y="9" width="29" height="11"/><rect class="cls-5" x="68" y="9" width="1" height="11"/><rect class="cls-6" x="76" y="9" width="1" height="11"/><rect class="cls-4" x="69" y="9" width="7" height="11"/><rect class="cls-7" x="106" y="9" width="10" height="11"/><circle class="cls-8" cx="72.5" cy="14.5" r="2"/><path d="M72.5,13A1.5,1.5,0,1,1,71,14.5,1.5,1.5,0,0,1,72.5,13m0-1A2.5,2.5,0,1,0,75,14.5,2.5,2.5,0,0,0,72.5,12Z"/><rect class="cls-9" x="69" y="10" width="7" height="1"/><rect class="cls-9" x="69" y="18" width="7" height="1"/><rect x="78" y="10" width="6" height="9"/><rect x="85" y="10" width="6" height="9"/><rect x="92" y="10" width="6" height="9"/><rect x="99" y="10" width="6" height="9"/><rect class="cls-10" x="107" y="10" width="8" height="9"/><rect class="cls-3" x="108" y="11" width="6" height="7"/><rect x="108" y="14" width="6" height="4"/><polygon class="cls-11" points="106 9 107 10 107 19 106 20 106 9"/><polygon class="cls-12" points="116 9 115 10 115 19 116 20 116 9"/><polygon class="cls-13" points="106 20 107 19 115 19 116 20 106 20"/><rect class="cls-14" x="81" y="11" width="1" height="1"/><rect class="cls-14" x="83" y="11" width="1" height="1"/><rect class="cls-14" x="81" y="13" width="1" height="1"/><rect class="cls-14" x="83" y="13" width="1" height="1"/><rect class="cls-14" x="81" y="15" width="1" height="1"/><rect class="cls-14" x="83" y="15" width="1" height="1"/><rect class="cls-14" x="81" y="17" width="1" height="1"/><rect class="cls-14" x="79" y="11" width="1" height="1"/><rect class="cls-14" x="79" y="13" width="1" height="1"/><rect class="cls-14" x="79" y="15" width="1" height="1"/><rect class="cls-14" x="79" y="17" width="1" height="1"/><rect class="cls-14" x="83" y="17" width="1" height="1"/><rect class="cls-14" x="88" y="11" width="1" height="1"/><rect class="cls-14" x="90" y="11" width="1" height="1"/><rect class="cls-14" x="88" y="13" width="1" height="1"/><rect class="cls-14" x="90" y="13" width="1" height="1"/><rect class="cls-14" x="88" y="15" width="1" height="1"/><rect class="cls-14" x="90" y="15" width="1" height="1"/><rect class="cls-14" x="88" y="17" width="1" height="1"/><rect class="cls-14" x="86" y="11" width="1" height="1"/><rect class="cls-14" x="86" y="13" width="1" height="1"/><rect class="cls-14" x="86" y="15" width="1" height="1"/><rect class="cls-14" x="86" y="17" width="1" height="1"/><rect class="cls-14" x="90" y="17" width="1" height="1"/><rect class="cls-14" x="95" y="11" width="1" height="1"/><rect class="cls-14" x="97" y="11" width="1" height="1"/><rect class="cls-14" x="95" y="13" width="1" height="1"/><rect class="cls-14" x="97" y="13" width="1" height="1"/><rect class="cls-14" x="95" y="15" width="1" height="1"/><rect class="cls-14" x="97" y="15" width="1" height="1"/><rect class="cls-14" x="95" y="17" width="1" height="1"/><rect class="cls-14" x="93" y="11" width="1" height="1"/><rect class="cls-14" x="93" y="13" width="1" height="1"/><rect class="cls-14" x="93" y="15" width="1" height="1"/><rect class="cls-14" x="93" y="17" width="1" height="1"/><rect class="cls-14" x="97" y="17" width="1" height="1"/><rect class="cls-14" x="102" y="11" width="1" height="1"/><rect class="cls-14" x="104" y="11" width="1" height="1"/><rect class="cls-14" x="102" y="13" width="1" height="1"/><rect class="cls-14" x="104" y="13" width="1" height="1"/><rect class="cls-14" x="102" y="15" width="1" height="1"/><rect class="cls-14" x="104" y="15" width="1" height="1"/><rect class="cls-14" x="102" y="17" width="1" height="1"/><rect class="cls-14" x="100" y="11" width="1" height="1"/><rect class="cls-14" x="100" y="13" width="1" height="1"/><rect class="cls-14" x="100" y="15" width="1" height="1"/><rect class="cls-14" x="100" y="17" width="1" height="1"/><rect class="cls-14" x="104" y="17" width="1" height="1"/><rect class="cls-4" x="9" y="9" width="4" height="11"/><rect class="cls-4" x="22" y="9" width="29" height="11"/><rect class="cls-5" x="13" y="9" width="1" height="11"/><rect class="cls-6" x="21" y="9" width="1" height="11"/><rect class="cls-4" x="14" y="9" width="7" height="11"/><rect class="cls-7" x="51" y="9" width="10" height="11"/><circle class="cls-8" cx="17.5" cy="14.5" r="2"/><path d="M17.5,13A1.5,1.5,0,1,1,16,14.5,1.5,1.5,0,0,1,17.5,13m0-1A2.5,2.5,0,1,0,20,14.5,2.5,2.5,0,0,0,17.5,12Z"/><rect class="cls-9" x="14" y="10" width="7" height="1"/><rect class="cls-9" x="14" y="18" width="7" height="1"/><rect x="23" y="10" width="6" height="9"/><rect x="30" y="10" width="6" height="9"/><rect x="37" y="10" width="6" height="9"/><rect x="44" y="10" width="6" height="9"/><rect class="cls-10" x="52" y="10" width="8" height="9"/><rect class="cls-3" x="53" y="11" width="6" height="7"/><rect x="53" y="14" width="6" height="4"/><polygon class="cls-11" points="51 9 52 10 52 19 51 20 51 9"/><polygon class="cls-12" points="61 9 60 10 60 19 61 20 61 9"/><polygon class="cls-13" points="51 20 52 19 60 19 61 20 51 20"/><rect class="cls-14" x="26" y="11" width="1" height="1"/><rect class="cls-14" x="28" y="11" width="1" height="1"/><rect class="cls-14" x="26" y="13" width="1" height="1"/><rect class="cls-14" x="28" y="13" width="1" height="1"/><rect class="cls-14" x="26" y="15" width="1" height="1"/><rect class="cls-14" x="28" y="15" width="1" height="1"/><rect class="cls-14" x="26" y="17" width="1" height="1"/><rect class="cls-14" x="24" y="11" width="1" height="1"/><rect class="cls-14" x="24" y="13" width="1" height="1"/><rect class="cls-14" x="24" y="15" width="1" height="1"/><rect class="cls-14" x="24" y="17" width="1" height="1"/><rect class="cls-14" x="28" y="17" width="1" height="1"/><rect class="cls-14" x="33" y="11" width="1" height="1"/><rect class="cls-14" x="35" y="11" width="1" height="1"/><rect class="cls-14" x="33" y="13" width="1" height="1"/><rect class="cls-14" x="35" y="13" width="1" height="1"/><rect class="cls-14" x="33" y="15" width="1" height="1"/><rect class="cls-14" x="35" y="15" width="1" height="1"/><rect class="cls-14" x="33" y="17" width="1" height="1"/><rect class="cls-14" x="31" y="11" width="1" height="1"/><rect class="cls-14" x="31" y="13" width="1" height="1"/><rect class="cls-14" x="31" y="15" width="1" height="1"/><rect class="cls-14" x="31" y="17" width="1" height="1"/><rect class="cls-14" x="35" y="17" width="1" height="1"/><rect class="cls-14" x="40" y="11" width="1" height="1"/><rect class="cls-14" x="42" y="11" width="1" height="1"/><rect class="cls-14" x="40" y="13" width="1" height="1"/><rect class="cls-14" x="42" y="13" width="1" height="1"/><rect class="cls-14" x="40" y="15" width="1" height="1"/><rect class="cls-14" x="42" y="15" width="1" height="1"/><rect class="cls-14" x="40" y="17" width="1" height="1"/><rect class="cls-14" x="38" y="11" width="1" height="1"/><rect class="cls-14" x="38" y="13" width="1" height="1"/><rect class="cls-14" x="38" y="15" width="1" height="1"/><rect class="cls-14" x="38" y="17" width="1" height="1"/><rect class="cls-14" x="42" y="17" width="1" height="1"/><rect class="cls-14" x="47" y="11" width="1" height="1"/><rect class="cls-14" x="49" y="11" width="1" height="1"/><rect class="cls-14" x="47" y="13" width="1" height="1"/><rect class="cls-14" x="49" y="13" width="1" height="1"/><rect class="cls-14" x="47" y="15" width="1" height="1"/><rect class="cls-14" x="49" y="15" width="1" height="1"/><rect class="cls-14" x="47" y="17" width="1" height="1"/><rect class="cls-14" x="45" y="11" width="1" height="1"/><rect class="cls-14" x="45" y="13" width="1" height="1"/><rect class="cls-14" x="45" y="15" width="1" height="1"/><rect class="cls-14" x="45" y="17" width="1" height="1"/><rect class="cls-14" x="49" y="17" width="1" height="1"/><circle class="cls-15" cx="9.5" cy="4.5" r="2"/><path class="cls-9" d="M9.5,3A1.5,1.5,0,1,1,8,4.5,1.5,1.5,0,0,1,9.5,3m0-1A2.5,2.5,0,1,0,12,4.5,2.5,2.5,0,0,0,9.5,2Z"/><circle cx="13.5" cy="4.5" r="0.5"/><polygon points="17.26 6 16.68 5 17.26 4 18.42 4 19 5 18.42 6 17.26 6"/><polygon points="29.26 6 28.68 5 29.26 4 30.42 4 31 5 30.42 6 29.26 6"/><path d="M28,6a1,1,0,0,1-1,1H21a1,1,0,0,1-1-1V4a1,1,0,0,1,1-1h6a1,1,0,0,1,1,1Z"/><rect class="cls-4" x="21" y="4" width="6" height="2"/><rect class="cls-16" x="22" y="4" width="1" height="1"/><rect class="cls-16" x="24" y="4" width="1" height="1"/><rect class="cls-16" x="26" y="4" width="1" height="1"/><rect class="cls-16" x="21" y="5" width="1" height="1"/><rect class="cls-16" x="23" y="5" width="1" height="1"/><rect class="cls-16" x="25" y="5" width="1" height="1"/><rect x="77" y="2" width="6" height="2"/><rect class="cls-10" x="78" y="2" width="4" height="1"/><rect x="84" y="2" width="6" height="2"/><rect class="cls-10" x="85" y="2" width="4" height="1"/><rect x="169" y="1" width="1" height="1"/><rect x="169" y="3" width="1" height="1"/><rect x="171" y="1" width="1" height="1"/><rect x="171" y="3" width="1" height="1"/><rect x="169" y="5" width="1" height="1"/><rect x="171" y="5" width="1" height="1"/><rect x="92" y="4" width="1" height="1"/><rect x="92" y="6" width="1" height="1"/><rect x="94" y="4" width="1" height="1"/><rect x="94" y="6" width="1" height="1"/><rect x="96" y="4" width="1" height="1"/><rect x="96" y="6" width="1" height="1"/><rect x="98" y="4" width="1" height="1"/><rect x="98" y="6" width="1" height="1"/><rect x="100" y="4" width="1" height="1"/><rect x="100" y="6" width="1" height="1"/><rect x="102" y="4" width="1" height="1"/><rect x="102" y="6" width="1" height="1"/><rect x="104" y="4" width="1" height="1"/><rect x="104" y="6" width="1" height="1"/><rect x="106" y="4" width="1" height="1"/><rect x="106" y="6" width="1" height="1"/><rect x="108" y="4" width="1" height="1"/><rect x="108" y="6" width="1" height="1"/><rect x="110" y="4" width="1" height="1"/><rect x="110" y="6" width="1" height="1"/><rect x="112" y="4" width="1" height="1"/><rect x="112" y="6" width="1" height="1"/><rect x="114" y="4" width="1" height="1"/><rect x="92" y="2" width="1" height="1"/><rect x="94" y="2" width="1" height="1"/><rect x="96" y="2" width="1" height="1"/><rect x="98" y="2" width="1" height="1"/><rect x="100" y="2" width="1" height="1"/><rect x="102" y="2" width="1" height="1"/><rect x="104" y="2" width="1" height="1"/><rect x="106" y="2" width="1" height="1"/><rect x="108" y="2" width="1" height="1"/><rect x="110" y="2" width="1" height="1"/><rect x="112" y="2" width="1" height="1"/><rect x="114" y="2" width="1" height="1"/><rect x="114" y="6" width="1" height="1"/><rect x="117" width="1" height="8"/><rect x="167" width="1" height="8"/><rect x="155" y="2" width="6" height="4"/><circle cx="162.5" cy="4.5" r="0.5"/><rect class="cls-5" x="156" y="3" width="4" height="2"/><rect class="cls-17" x="151" y="5" width="2" height="1"/><rect class="cls-18" x="56" y="2" width="14" height="2"/><rect class="cls-19" x="42" y="2" width="10" height="4"/><rect class="cls-18" x="43" y="3" width="2" height="2"/><rect class="cls-18" x="46" y="3" width="2" height="2"/><rect class="cls-18" x="49" y="3" width="2" height="2"/><circle class="cls-20" cx="73" cy="3" r="1"/><rect class="cls-3" x="40" width="1" height="8"/><rect class="cls-3" x="75" width="1" height="8"/></svg>