<svg id="图层_1" data-name="图层 1" xmlns="http://www.w3.org/2000/svg" viewBox="0 0 180 48"><defs><style>.cls-1{fill:#444;}.cls-2{fill:#727171;}.cls-3{fill:lime;}.cls-4{fill:#e5e5e5;}.cls-5{fill:#1e1e1e;}.cls-6{fill:#fff;}.cls-7{fill:aqua;}.cls-8{fill:#6052bd;}.cls-9{fill:#0093b9;}.cls-10{fill:#aeafaf;}.cls-11{fill:#232323;}.cls-12{fill:#ccc;}.cls-13{fill:#282828;}.cls-14{fill:#666;}.cls-15{fill:#e1e1e2;}.cls-16{fill:#7c7c7c;}.cls-17{fill:#dd172a;}.cls-18{fill:#1c9122;}</style></defs><rect class="cls-1" y="16" width="180" height="16"/><rect class="cls-2" x="1" y="17" width="178" height="14"/><rect class="cls-3" x="23" y="22" width="1" height="1"/><rect class="cls-3" x="23" y="26" width="1" height="1"/><rect class="cls-3" x="25" y="22" width="1" height="1"/><rect class="cls-3" x="25" y="26" width="1" height="1"/><rect class="cls-4" x="27" y="22" width="1" height="1"/><rect class="cls-3" x="27" y="26" width="1" height="1"/><rect class="cls-4" x="29" y="22" width="1" height="1"/><rect class="cls-4" x="29" y="26" width="1" height="1"/><rect class="cls-4" x="31" y="22" width="1" height="1"/><rect class="cls-3" x="23" y="20" width="1" height="1"/><rect class="cls-3" x="25" y="20" width="1" height="1"/><rect class="cls-4" x="27" y="20" width="1" height="1"/><rect class="cls-4" x="29" y="20" width="1" height="1"/><rect class="cls-4" x="31" y="20" width="1" height="1"/><rect class="cls-4" x="31" y="26" width="1" height="1"/><rect class="cls-4" x="23" y="28" width="1" height="1"/><rect class="cls-4" x="25" y="28" width="1" height="1"/><rect class="cls-4" x="27" y="28" width="1" height="1"/><rect class="cls-4" x="29" y="28" width="1" height="1"/><rect class="cls-4" x="31" y="28" width="1" height="1"/><rect class="cls-4" x="33" y="22" width="1" height="1"/><rect class="cls-4" x="33" y="20" width="1" height="1"/><rect class="cls-4" x="33" y="26" width="1" height="1"/><rect class="cls-4" x="33" y="28" width="1" height="1"/><rect class="cls-4" x="35" y="22" width="1" height="1"/><rect class="cls-4" x="35" y="20" width="1" height="1"/><rect class="cls-4" x="35" y="26" width="1" height="1"/><rect class="cls-4" x="35" y="28" width="1" height="1"/><rect class="cls-4" x="37" y="22" width="1" height="1"/><rect class="cls-4" x="37" y="20" width="1" height="1"/><rect class="cls-4" x="37" y="26" width="1" height="1"/><rect class="cls-4" x="37" y="28" width="1" height="1"/><rect class="cls-4" x="39" y="22" width="1" height="1"/><rect class="cls-4" x="39" y="20" width="1" height="1"/><rect class="cls-4" x="39" y="26" width="1" height="1"/><rect class="cls-4" x="39" y="28" width="1" height="1"/><rect class="cls-4" x="41" y="22" width="1" height="1"/><rect class="cls-4" x="41" y="20" width="1" height="1"/><rect class="cls-4" x="41" y="26" width="1" height="1"/><rect class="cls-4" x="41" y="28" width="1" height="1"/><rect class="cls-4" x="43" y="22" width="1" height="1"/><rect class="cls-4" x="43" y="20" width="1" height="1"/><rect class="cls-4" x="43" y="26" width="1" height="1"/><rect class="cls-4" x="43" y="28" width="1" height="1"/><rect class="cls-4" x="45" y="22" width="1" height="1"/><rect class="cls-4" x="45" y="20" width="1" height="1"/><rect class="cls-5" x="48" y="17" width="1" height="14"/><rect class="cls-5" x="51" y="18" width="1" height="12"/><rect class="cls-5" x="53" y="18" width="1" height="12"/><rect class="cls-5" x="55" y="18" width="1" height="12"/><rect class="cls-5" x="57" y="18" width="1" height="12"/><rect class="cls-5" x="59" y="18" width="1" height="12"/><rect class="cls-5" x="61" y="18" width="1" height="12"/><rect class="cls-5" x="63" y="18" width="1" height="12"/><rect class="cls-5" x="65" y="18" width="1" height="12"/><rect class="cls-5" x="67" y="18" width="1" height="12"/><rect class="cls-5" x="69" y="18" width="1" height="12"/><rect class="cls-5" x="71" y="18" width="1" height="12"/><rect class="cls-5" x="73" y="18" width="1" height="12"/><rect class="cls-5" x="75" y="18" width="1" height="12"/><rect class="cls-5" x="77" y="18" width="1" height="12"/><rect class="cls-5" x="79" y="18" width="1" height="12"/><rect class="cls-5" x="81" y="18" width="1" height="12"/><rect class="cls-5" x="83" y="18" width="1" height="12"/><rect class="cls-5" x="85" y="18" width="1" height="12"/><rect class="cls-4" x="45" y="26" width="1" height="1"/><rect class="cls-4" x="45" y="28" width="1" height="1"/><path class="cls-6" d="M4.4,21V20H5a.31.31,0,0,1,.15.1.32.32,0,0,1,.06.2.34.34,0,0,1-.12.26.22.22,0,0,1-.11.05H4.6V21Zm.2-.85v.29h.12a.51.51,0,0,0,.16,0s0,0,.06-.05a.11.11,0,0,0,0-.08.18.18,0,0,0,0-.09.12.12,0,0,0-.08,0H4.6Z"/><path class="cls-6" d="M5.39,20.53a.68.68,0,0,1,0-.26.45.45,0,0,1,.1-.14A.38.38,0,0,1,5.66,20a.51.51,0,0,1,.22,0,.49.49,0,0,1,.36.14.53.53,0,0,1,.14.39.56.56,0,0,1-.14.39.53.53,0,0,1-.72,0,.54.54,0,0,1-.13-.39Zm.21,0a.35.35,0,0,0,.08.26.25.25,0,0,0,.2.09.24.24,0,0,0,.2-.09.36.36,0,0,0,.08-.27.4.4,0,0,0-.07-.26.26.26,0,0,0-.21-.08.24.24,0,0,0-.2.08A.36.36,0,0,0,5.6,20.53Z"/><polygon class="cls-6" points="6.76 21.04 6.52 20.02 6.73 20.02 6.88 20.72 7.07 20.02 7.31 20.02 7.49 20.73 7.65 20.02 7.86 20.02 7.61 21.04 7.39 21.04 7.19 20.27 6.98 21.04 6.76 21.04"/><polygon class="cls-6" points="8.04 21.04 8.04 20.02 8.8 20.02 8.8 20.19 8.25 20.19 8.25 20.42 8.76 20.42 8.76 20.59 8.25 20.59 8.25 20.87 8.82 20.87 8.82 21.04 8.04 21.04"/><path class="cls-6" d="M9.07,21V20h.44a.7.7,0,0,1,.24,0,.17.17,0,0,1,.11.09.3.3,0,0,1,.05.16.25.25,0,0,1-.07.19.34.34,0,0,1-.2.1.31.31,0,0,1,.11.08,1.12,1.12,0,0,1,.12.17L10,21H9.74l-.14-.22-.11-.15a.13.13,0,0,0-.06-.05H9.28V21Zm.21-.59h.34l.06-.05a.14.14,0,0,0,0-.07.12.12,0,0,0,0-.09.2.2,0,0,0-.08,0H9.28Z"/><path class="cls-6" d="M7,23V22H7.4a.63.63,0,0,1,.23,0,.27.27,0,0,1,.12.09.31.31,0,0,1,0,.17.32.32,0,0,1-.07.19.31.31,0,0,1-.2.09.48.48,0,0,1,.11.09l.11.16.13.2H7.63l-.15-.22-.1-.15a.1.1,0,0,0-.07,0,.22.22,0,0,0-.1,0h0V23Zm.21-.59h.34l.06,0a.19.19,0,0,0,0-.08.11.11,0,0,0,0-.08.12.12,0,0,0-.08,0H7.17v.26Z"/><path class="cls-6" d="M8.07,22h.2v.55c0,.09,0,.15,0,.17a.14.14,0,0,0,.06.1.21.21,0,0,0,.14,0,.29.29,0,0,0,.14,0,.41.41,0,0,0,.05-.09s0-.09,0-.18V22h.2v.54a1.71,1.71,0,0,1,0,.26.34.34,0,0,1-.06.12.27.27,0,0,1-.12.09.6.6,0,0,1-.2,0,.43.43,0,0,1-.22,0,.36.36,0,0,1-.12-.08.34.34,0,0,1-.06-.12.86.86,0,0,1,0-.25Z"/><polygon class="cls-6" points="9.18 23.02 9.18 22 9.38 22 9.8 22.68 9.8 22 9.99 22 9.99 23.02 9.79 23.02 9.37 22.35 9.37 23.02 9.18 23.02"/><polygon class="cls-6" points="7.47 27.04 7.47 26.02 7.78 26.02 7.96 26.71 8.14 26.02 8.46 26.02 8.46 27.04 8.26 27.04 8.26 26.23 8.06 27.04 7.86 27.04 7.66 26.23 7.66 27.04 7.47 27.04"/><polygon class="cls-6" points="8.63 27.06 8.88 26 9.03 26 8.78 27.06 8.63 27.06"/><path class="cls-6" d="M9.16,26.71l.2,0a.35.35,0,0,0,.07.15.33.33,0,0,0,.15,0,.21.21,0,0,0,.15,0,.11.11,0,0,0,0-.1.07.07,0,0,0,0-.06s0,0-.07-.05l-.17,0a.55.55,0,0,1-.23-.1.29.29,0,0,1-.09-.21.23.23,0,0,1,0-.14A.28.28,0,0,1,9.37,26a.6.6,0,0,1,.2,0,.46.46,0,0,1,.29.08.31.31,0,0,1,.1.23h-.2a.17.17,0,0,0-.19-.15.2.2,0,0,0-.14,0,.06.06,0,0,0,0,.12.35.35,0,0,0,.18.07,1,1,0,0,1,.23.08.27.27,0,0,1,.11.1.27.27,0,0,1,0,.16.34.34,0,0,1-.05.17A.26.26,0,0,1,9.8,27a.48.48,0,0,1-.22,0,.45.45,0,0,1-.3-.09A.49.49,0,0,1,9.16,26.71Z"/><polygon class="cls-6" points="7.2 29.02 7.2 28 7.9 28 7.9 28.17 7.41 28.17 7.41 28.41 7.83 28.41 7.83 28.59 7.41 28.59 7.41 29.02 7.2 29.02"/><path class="cls-6" d="M9,29H8.77l-.09-.23H8.27L8.19,29H8l.39-1h.22L9,29Zm-.38-.4-.14-.38-.14.38Z"/><polygon class="cls-6" points="9.18 29.02 9.18 28 9.38 28 9.8 28.68 9.8 28 9.99 28 9.99 29.02 9.79 29.02 9.37 28.35 9.37 29.02 9.18 29.02"/><rect class="cls-3" x="11" y="22" width="1" height="1"/><rect class="cls-4" x="11" y="26" width="1" height="1"/><rect class="cls-7" x="11" y="20" width="1" height="1"/><rect class="cls-4" x="11" y="28" width="1" height="1"/><polygon class="cls-8" points="21 24 17 24 17 22 21 22 22 23.08 21 24"/><polygon class="cls-9" points="21 21 17 21 17 19 21 19 22 20.08 21 21"/><polygon class="cls-9" points="21 27 17 27 17 25 21 25 22 26 21 27"/><polygon class="cls-8" points="21 30 17 30 17 28 21 28 22 29 21 30"/><polygon class="cls-6" points="17.4 20.47 17.4 19.5 17.6 19.5 17.6 20.3 18.09 20.3 18.09 20.47 17.4 20.47"/><rect class="cls-6" x="18.3" y="19.49" width="0.2" height="0.98"/><polygon class="cls-6" points="18.77 20.47 18.77 19.49 18.96 19.49 19.36 20.14 19.36 19.49 19.55 19.49 19.55 20.47 19.35 20.47 18.95 19.83 18.95 20.47 18.77 20.47"/><polygon class="cls-6" points="19.84 20.47 19.84 19.49 20.03 19.49 20.03 19.92 20.43 19.49 20.7 19.49 20.33 19.87 20.72 20.47 20.46 20.47 20.2 20.01 20.03 20.17 20.03 20.47 19.84 20.47"/><path class="cls-6" d="M18.52,23.51h-.21l-.09-.23h-.39l-.08.23h-.21l.38-1h.21l.39,1Zm-.36-.39L18,22.75l-.13.37Z"/><path class="cls-6" d="M19.33,23.15l.19.06a.57.57,0,0,1-.14.24.44.44,0,0,1-.26.07.43.43,0,0,1-.33-.13.63.63,0,0,1,0-.75.42.42,0,0,1,.33-.13.39.39,0,0,1,.29.1.39.39,0,0,1,.1.19l-.2,0a.19.19,0,0,0-.2-.16.22.22,0,0,0-.18.08.39.39,0,0,0-.07.25.43.43,0,0,0,.07.26.2.2,0,0,0,.17.08.17.17,0,0,0,.14-.05A.27.27,0,0,0,19.33,23.15Z"/><polygon class="cls-6" points="19.99 23.51 19.99 22.69 19.7 22.69 19.7 22.52 20.48 22.52 20.48 22.69 20.19 22.69 20.19 23.51 19.99 23.51"/><polygon class="cls-6" points="17.4 26.49 17.4 25.52 17.6 25.52 17.6 26.32 18.09 26.32 18.09 26.49 17.4 26.49"/><rect class="cls-6" x="18.3" y="25.51" width="0.2" height="0.98"/><polygon class="cls-6" points="18.77 26.49 18.77 25.51 18.96 25.51 19.36 26.16 19.36 25.51 19.55 25.51 19.55 26.49 19.35 26.49 18.95 25.85 18.95 26.49 18.77 26.49"/><polygon class="cls-6" points="19.84 26.49 19.84 25.51 20.03 25.51 20.03 25.94 20.43 25.51 20.7 25.51 20.33 25.89 20.72 26.49 20.46 26.49 20.2 26.03 20.03 26.19 20.03 26.49 19.84 26.49"/><path class="cls-6" d="M18.52,29.49h-.21l-.09-.22h-.39l-.08.22h-.21l.38-1h.21l.39,1Zm-.36-.39L18,28.74l-.13.36Z"/><path class="cls-6" d="M19.33,29.13l.19.06a.46.46,0,0,1-.14.24.45.45,0,0,1-.26.08.44.44,0,0,1-.33-.14.52.52,0,0,1-.12-.36.52.52,0,0,1,.13-.38.42.42,0,0,1,.33-.14.4.4,0,0,1,.29.11.32.32,0,0,1,.1.18l-.2,0a.16.16,0,0,0-.07-.12.19.19,0,0,0-.13-.05.25.25,0,0,0-.18.08.41.41,0,0,0-.07.25.44.44,0,0,0,.07.27.23.23,0,0,0,.17.08.22.22,0,0,0,.14-.05A.3.3,0,0,0,19.33,29.13Z"/><polygon class="cls-6" points="19.99 29.49 19.99 28.68 19.7 28.68 19.7 28.51 20.48 28.51 20.48 28.68 20.19 28.68 20.19 29.49 19.99 29.49"/><rect class="cls-10" x="89" y="18" width="8" height="6"/><polygon class="cls-11" points="94 19 92 19 92 20 90 20 90 23 96 23 96 20 94 20 94 19"/><rect class="cls-10" x="89" y="24" width="8" height="6"/><polygon class="cls-11" points="94 29 92 29 92 28 90 28 90 25 96 25 96 28 94 28 94 29"/><rect class="cls-10" x="102" y="18" width="6" height="6"/><polygon class="cls-11" points="106 19 104 19 104 20 103 20 103 23 107 23 107 20 106 20 106 19"/><rect class="cls-10" x="102" y="24" width="6" height="6"/><polygon class="cls-11" points="106 29 104 29 104 28 103 28 103 25 107 25 107 28 106 28 106 29"/><rect class="cls-10" x="108" y="18" width="6" height="6"/><polygon class="cls-11" points="112 19 110 19 110 20 109 20 109 23 113 23 113 20 112 20 112 19"/><rect class="cls-10" x="108" y="24" width="6" height="6"/><polygon class="cls-11" points="112 29 110 29 110 28 109 28 109 25 113 25 113 28 112 28 112 29"/><rect class="cls-10" x="114" y="18" width="6" height="6"/><polygon class="cls-11" points="118 19 116 19 116 20 115 20 115 23 119 23 119 20 118 20 118 19"/><rect class="cls-10" x="114" y="24" width="6" height="6"/><polygon class="cls-11" points="118 29 116 29 116 28 115 28 115 25 119 25 119 28 118 28 118 29"/><rect class="cls-10" x="120" y="18" width="6" height="6"/><polygon class="cls-11" points="124 19 122 19 122 20 121 20 121 23 125 23 125 20 124 20 124 19"/><rect class="cls-10" x="120" y="24" width="6" height="6"/><polygon class="cls-11" points="124 29 122 29 122 28 121 28 121 25 125 25 125 28 124 28 124 29"/><rect class="cls-10" x="126" y="18" width="6" height="6"/><polygon class="cls-11" points="130 19 128 19 128 20 127 20 127 23 131 23 131 20 130 20 130 19"/><rect class="cls-10" x="126" y="24" width="6" height="6"/><polygon class="cls-11" points="130 29 128 29 128 28 127 28 127 25 131 25 131 28 130 28 130 29"/><rect class="cls-10" x="132" y="18" width="6" height="6"/><polygon class="cls-11" points="136 19 134 19 134 20 133 20 133 23 137 23 137 20 136 20 136 19"/><rect class="cls-10" x="132" y="24" width="6" height="6"/><polygon class="cls-11" points="136 29 134 29 134 28 133 28 133 25 137 25 137 28 136 28 136 29"/><rect class="cls-10" x="140" y="18" width="6" height="6"/><polygon class="cls-11" points="144 19 142 19 142 20 141 20 141 23 145 23 145 20 144 20 144 19"/><rect class="cls-10" x="140" y="24" width="6" height="6"/><polygon class="cls-11" points="144 29 142 29 142 28 141 28 141 25 145 25 145 28 144 28 144 29"/><rect class="cls-10" x="146" y="18" width="6" height="6"/><polygon class="cls-11" points="150 19 148 19 148 20 147 20 147 23 151 23 151 20 150 20 150 19"/><rect class="cls-10" x="146" y="24" width="6" height="6"/><polygon class="cls-11" points="150 29 148 29 148 28 147 28 147 25 151 25 151 28 150 28 150 29"/><rect class="cls-10" x="152" y="18" width="6" height="6"/><polygon class="cls-11" points="156 19 154 19 154 20 153 20 153 23 157 23 157 20 156 20 156 19"/><rect class="cls-10" x="152" y="24" width="6" height="6"/><polygon class="cls-11" points="156 29 154 29 154 28 153 28 153 25 157 25 157 28 156 28 156 29"/><rect class="cls-10" x="158" y="18" width="6" height="6"/><polygon class="cls-11" points="162 19 160 19 160 20 159 20 159 23 163 23 163 20 162 20 162 19"/><rect class="cls-10" x="158" y="24" width="6" height="6"/><polygon class="cls-11" points="162 29 160 29 160 28 159 28 159 25 163 25 163 28 162 28 162 29"/><rect class="cls-10" x="164" y="18" width="6" height="6"/><polygon class="cls-11" points="168 19 166 19 166 20 165 20 165 23 169 23 169 20 168 20 168 19"/><rect class="cls-10" x="164" y="24" width="6" height="6"/><polygon class="cls-11" points="168 29 166 29 166 28 165 28 165 25 169 25 169 28 168 28 168 29"/><rect class="cls-10" x="170" y="18" width="6" height="6"/><polygon class="cls-11" points="174 19 172 19 172 20 171 20 171 23 175 23 175 20 174 20 174 19"/><rect class="cls-10" x="170" y="24" width="6" height="6"/><polygon class="cls-11" points="174 29 172 29 172 28 171 28 171 25 175 25 175 28 174 28 174 29"/><rect class="cls-1" y="32" width="180" height="16"/><rect class="cls-2" x="1" y="33" width="178" height="14"/><rect class="cls-3" x="23" y="38" width="1" height="1"/><rect class="cls-3" x="23" y="42" width="1" height="1"/><rect class="cls-3" x="25" y="38" width="1" height="1"/><rect class="cls-3" x="25" y="42" width="1" height="1"/><rect class="cls-4" x="27" y="38" width="1" height="1"/><rect class="cls-3" x="27" y="42" width="1" height="1"/><rect class="cls-4" x="29" y="38" width="1" height="1"/><rect class="cls-4" x="29" y="42" width="1" height="1"/><rect class="cls-4" x="31" y="38" width="1" height="1"/><rect class="cls-3" x="23" y="36" width="1" height="1"/><rect class="cls-3" x="25" y="36" width="1" height="1"/><rect class="cls-4" x="27" y="36" width="1" height="1"/><rect class="cls-4" x="29" y="36" width="1" height="1"/><rect class="cls-4" x="31" y="36" width="1" height="1"/><rect class="cls-4" x="31" y="42" width="1" height="1"/><rect class="cls-4" x="23" y="44" width="1" height="1"/><rect class="cls-4" x="25" y="44" width="1" height="1"/><rect class="cls-4" x="27" y="44" width="1" height="1"/><rect class="cls-4" x="29" y="44" width="1" height="1"/><rect class="cls-4" x="31" y="44" width="1" height="1"/><rect class="cls-4" x="33" y="38" width="1" height="1"/><rect class="cls-4" x="33" y="36" width="1" height="1"/><rect class="cls-4" x="33" y="42" width="1" height="1"/><rect class="cls-4" x="33" y="44" width="1" height="1"/><rect class="cls-4" x="35" y="38" width="1" height="1"/><rect class="cls-4" x="35" y="36" width="1" height="1"/><rect class="cls-4" x="35" y="42" width="1" height="1"/><rect class="cls-4" x="35" y="44" width="1" height="1"/><rect class="cls-4" x="37" y="38" width="1" height="1"/><rect class="cls-4" x="37" y="36" width="1" height="1"/><rect class="cls-4" x="37" y="42" width="1" height="1"/><rect class="cls-4" x="37" y="44" width="1" height="1"/><rect class="cls-4" x="39" y="38" width="1" height="1"/><rect class="cls-4" x="39" y="36" width="1" height="1"/><rect class="cls-4" x="39" y="42" width="1" height="1"/><rect class="cls-4" x="39" y="44" width="1" height="1"/><rect class="cls-4" x="41" y="38" width="1" height="1"/><rect class="cls-4" x="41" y="36" width="1" height="1"/><rect class="cls-4" x="41" y="42" width="1" height="1"/><rect class="cls-4" x="41" y="44" width="1" height="1"/><rect class="cls-4" x="43" y="38" width="1" height="1"/><rect class="cls-4" x="43" y="36" width="1" height="1"/><rect class="cls-4" x="43" y="42" width="1" height="1"/><rect class="cls-4" x="43" y="44" width="1" height="1"/><rect class="cls-4" x="45" y="38" width="1" height="1"/><rect class="cls-4" x="45" y="36" width="1" height="1"/><rect class="cls-5" x="48" y="33" width="1" height="14"/><rect class="cls-5" x="51" y="34" width="1" height="12"/><rect class="cls-5" x="53" y="34" width="1" height="12"/><rect class="cls-5" x="55" y="34" width="1" height="12"/><rect class="cls-5" x="57" y="34" width="1" height="12"/><rect class="cls-5" x="59" y="34" width="1" height="12"/><rect class="cls-5" x="61" y="34" width="1" height="12"/><rect class="cls-5" x="63" y="34" width="1" height="12"/><rect class="cls-5" x="65" y="34" width="1" height="12"/><rect class="cls-5" x="67" y="34" width="1" height="12"/><rect class="cls-5" x="69" y="34" width="1" height="12"/><rect class="cls-5" x="71" y="34" width="1" height="12"/><rect class="cls-5" x="73" y="34" width="1" height="12"/><rect class="cls-5" x="75" y="34" width="1" height="12"/><rect class="cls-5" x="77" y="34" width="1" height="12"/><rect class="cls-5" x="79" y="34" width="1" height="12"/><rect class="cls-5" x="81" y="34" width="1" height="12"/><rect class="cls-5" x="83" y="34" width="1" height="12"/><rect class="cls-5" x="85" y="34" width="1" height="12"/><rect class="cls-4" x="45" y="42" width="1" height="1"/><rect class="cls-4" x="45" y="44" width="1" height="1"/><path class="cls-6" d="M4.4,37V36H5a.31.31,0,0,1,.15.1.32.32,0,0,1,.06.2.34.34,0,0,1-.12.26.22.22,0,0,1-.11,0H4.6V37Zm.2-.85v.29h.12l.16,0s0,0,.06-.05a.11.11,0,0,0,0-.08.18.18,0,0,0,0-.09.12.12,0,0,0-.08,0H4.6Z"/><path class="cls-6" d="M5.39,36.53a.68.68,0,0,1,0-.26.45.45,0,0,1,.1-.14A.38.38,0,0,1,5.66,36a.51.51,0,0,1,.22,0,.49.49,0,0,1,.36.14.53.53,0,0,1,.14.39.56.56,0,0,1-.14.39.53.53,0,0,1-.72,0,.54.54,0,0,1-.13-.39Zm.21,0a.35.35,0,0,0,.08.26.25.25,0,0,0,.2.09.24.24,0,0,0,.2-.09.36.36,0,0,0,.08-.27.4.4,0,0,0-.07-.26.26.26,0,0,0-.21-.08.24.24,0,0,0-.2.08A.36.36,0,0,0,5.6,36.53Z"/><polygon class="cls-6" points="6.76 37.04 6.52 36.02 6.73 36.02 6.88 36.72 7.07 36.02 7.31 36.02 7.49 36.73 7.65 36.02 7.86 36.02 7.61 37.04 7.39 37.04 7.19 36.27 6.98 37.04 6.76 37.04"/><polygon class="cls-6" points="8.04 37.04 8.04 36.02 8.8 36.02 8.8 36.19 8.25 36.19 8.25 36.42 8.76 36.42 8.76 36.59 8.25 36.59 8.25 36.87 8.82 36.87 8.82 37.04 8.04 37.04"/><path class="cls-6" d="M9.07,37V36h.44a.7.7,0,0,1,.24,0,.17.17,0,0,1,.11.09.3.3,0,0,1,.05.16.25.25,0,0,1-.07.19.34.34,0,0,1-.2.1.31.31,0,0,1,.11.08,1.12,1.12,0,0,1,.12.17L10,37H9.74l-.14-.22-.11-.15a.13.13,0,0,0-.06-.05H9.28V37Zm.21-.59h.34l.06,0a.14.14,0,0,0,0-.07.12.12,0,0,0,0-.09l-.08,0H9.28Z"/><path class="cls-6" d="M7,39V38H7.4a.63.63,0,0,1,.23,0,.27.27,0,0,1,.12.09.31.31,0,0,1,0,.17.32.32,0,0,1-.07.19.31.31,0,0,1-.2.09.48.48,0,0,1,.11.09l.11.16.13.2H7.63l-.15-.22-.1-.15a.1.1,0,0,0-.07,0l-.1,0h0V39Zm.21-.59h.34l.06,0a.19.19,0,0,0,0-.08.11.11,0,0,0,0-.08.12.12,0,0,0-.08,0H7.17v.26Z"/><path class="cls-6" d="M8.07,38h.2v.55c0,.09,0,.15,0,.17a.14.14,0,0,0,.06.1.21.21,0,0,0,.14,0,.29.29,0,0,0,.14,0,.41.41,0,0,0,.05-.09s0-.09,0-.18V38h.2v.54a1.71,1.71,0,0,1,0,.26.34.34,0,0,1-.06.12.27.27,0,0,1-.12.09.6.6,0,0,1-.2,0,.43.43,0,0,1-.22,0,.36.36,0,0,1-.12-.08.34.34,0,0,1-.06-.12.86.86,0,0,1,0-.25Z"/><polygon class="cls-6" points="9.18 39.02 9.18 38 9.38 38 9.8 38.68 9.8 38 9.99 38 9.99 39.02 9.79 39.02 9.37 38.35 9.37 39.02 9.18 39.02"/><polygon class="cls-6" points="7.47 43.04 7.47 42.02 7.78 42.02 7.96 42.71 8.14 42.02 8.46 42.02 8.46 43.04 8.26 43.04 8.26 42.23 8.06 43.04 7.86 43.04 7.66 42.23 7.66 43.04 7.47 43.04"/><polygon class="cls-6" points="8.63 43.06 8.88 42 9.03 42 8.78 43.06 8.63 43.06"/><path class="cls-6" d="M9.16,42.71l.2,0a.35.35,0,0,0,.07.15.33.33,0,0,0,.15,0,.21.21,0,0,0,.15,0,.11.11,0,0,0,0-.1.07.07,0,0,0,0-.06s0,0-.07,0l-.17,0a.55.55,0,0,1-.23-.1.29.29,0,0,1-.09-.21.23.23,0,0,1,0-.14A.28.28,0,0,1,9.37,42a.6.6,0,0,1,.2,0,.46.46,0,0,1,.29.08.31.31,0,0,1,.1.23h-.2a.17.17,0,0,0-.19-.15.2.2,0,0,0-.14,0,.06.06,0,0,0,0,.12.35.35,0,0,0,.18.07,1,1,0,0,1,.23.08.27.27,0,0,1,.11.1.27.27,0,0,1,0,.16.34.34,0,0,1-.05.17A.26.26,0,0,1,9.8,43a.48.48,0,0,1-.22,0,.45.45,0,0,1-.3-.09A.49.49,0,0,1,9.16,42.71Z"/><polygon class="cls-6" points="7.2 45.02 7.2 44 7.9 44 7.9 44.17 7.41 44.17 7.41 44.41 7.83 44.41 7.83 44.59 7.41 44.59 7.41 45.02 7.2 45.02"/><path class="cls-6" d="M9,45H8.77l-.09-.23H8.27L8.19,45H8l.39-1h.22L9,45Zm-.38-.4-.14-.38-.14.38Z"/><polygon class="cls-6" points="9.18 45.02 9.18 44 9.38 44 9.8 44.68 9.8 44 9.99 44 9.99 45.02 9.79 45.02 9.37 44.35 9.37 45.02 9.18 45.02"/><rect class="cls-3" x="11" y="38" width="1" height="1"/><rect class="cls-4" x="11" y="42" width="1" height="1"/><rect class="cls-7" x="11" y="36" width="1" height="1"/><rect class="cls-4" x="11" y="44" width="1" height="1"/><polygon class="cls-8" points="21 40 17 40 17 38 21 38 22 39.08 21 40"/><polygon class="cls-9" points="21 37 17 37 17 35 21 35 22 36.08 21 37"/><polygon class="cls-9" points="21 43 17 43 17 41 21 41 22 42 21 43"/><polygon class="cls-8" points="21 46 17 46 17 44 21 44 22 45 21 46"/><polygon class="cls-6" points="17.4 36.47 17.4 35.49 17.6 35.49 17.6 36.3 18.09 36.3 18.09 36.47 17.4 36.47"/><rect class="cls-6" x="18.3" y="35.49" width="0.2" height="0.98"/><polygon class="cls-6" points="18.77 36.47 18.77 35.49 18.96 35.49 19.36 36.14 19.36 35.49 19.55 35.49 19.55 36.47 19.35 36.47 18.95 35.83 18.95 36.47 18.77 36.47"/><polygon class="cls-6" points="19.84 36.47 19.84 35.49 20.03 35.49 20.03 35.92 20.43 35.49 20.7 35.49 20.33 35.87 20.72 36.47 20.46 36.47 20.2 36.01 20.03 36.17 20.03 36.47 19.84 36.47"/><path class="cls-6" d="M18.52,39.51h-.21l-.09-.23h-.39l-.08.23h-.21l.38-1h.21l.39,1Zm-.36-.39L18,38.75l-.13.37Z"/><path class="cls-6" d="M19.33,39.15l.19.06a.57.57,0,0,1-.14.24.44.44,0,0,1-.26.07.43.43,0,0,1-.33-.13.63.63,0,0,1,0-.75.42.42,0,0,1,.33-.13.39.39,0,0,1,.29.1.39.39,0,0,1,.1.19l-.2,0a.19.19,0,0,0-.2-.16.22.22,0,0,0-.18.08.39.39,0,0,0-.07.25.43.43,0,0,0,.07.26.2.2,0,0,0,.17.08.17.17,0,0,0,.14-.05A.27.27,0,0,0,19.33,39.15Z"/><polygon class="cls-6" points="19.99 39.51 19.99 38.69 19.7 38.69 19.7 38.52 20.48 38.52 20.48 38.69 20.19 38.69 20.19 39.51 19.99 39.51"/><polygon class="cls-6" points="17.4 42.49 17.4 41.52 17.6 41.52 17.6 42.32 18.09 42.32 18.09 42.49 17.4 42.49"/><rect class="cls-6" x="18.3" y="41.51" width="0.2" height="0.98"/><polygon class="cls-6" points="18.77 42.49 18.77 41.51 18.96 41.51 19.36 42.16 19.36 41.51 19.55 41.51 19.55 42.49 19.35 42.49 18.95 41.85 18.95 42.49 18.77 42.49"/><polygon class="cls-6" points="19.84 42.49 19.84 41.51 20.03 41.51 20.03 41.94 20.43 41.51 20.7 41.51 20.33 41.89 20.72 42.49 20.46 42.49 20.2 42.03 20.03 42.19 20.03 42.49 19.84 42.49"/><path class="cls-6" d="M18.52,45.49h-.21l-.09-.22h-.39l-.08.22h-.21l.38-1h.21l.39,1Zm-.36-.39L18,44.74l-.13.36Z"/><path class="cls-6" d="M19.33,45.13l.19.06a.46.46,0,0,1-.14.24.45.45,0,0,1-.26.08.44.44,0,0,1-.33-.14.52.52,0,0,1-.12-.36.52.52,0,0,1,.13-.38.42.42,0,0,1,.33-.14.4.4,0,0,1,.29.11.32.32,0,0,1,.1.18l-.2,0a.16.16,0,0,0-.07-.12.19.19,0,0,0-.13-.05.25.25,0,0,0-.18.08.41.41,0,0,0-.07.25.44.44,0,0,0,.07.27.23.23,0,0,0,.17.08.22.22,0,0,0,.14-.05A.3.3,0,0,0,19.33,45.13Z"/><polygon class="cls-6" points="19.99 45.49 19.99 44.67 19.7 44.67 19.7 44.51 20.48 44.51 20.48 44.67 20.19 44.67 20.19 45.49 19.99 45.49"/><rect class="cls-10" x="89" y="34" width="8" height="6"/><polygon class="cls-11" points="94 35 92 35 92 36 90 36 90 39 96 39 96 36 94 36 94 35"/><rect class="cls-10" x="89" y="40" width="8" height="6"/><polygon class="cls-11" points="94 45 92 45 92 44 90 44 90 41 96 41 96 44 94 44 94 45"/><rect class="cls-10" x="102" y="34" width="6" height="6"/><polygon class="cls-11" points="106 35 104 35 104 36 103 36 103 39 107 39 107 36 106 36 106 35"/><rect class="cls-10" x="102" y="40" width="6" height="6"/><polygon class="cls-11" points="106 45 104 45 104 44 103 44 103 41 107 41 107 44 106 44 106 45"/><rect class="cls-10" x="108" y="34" width="6" height="6"/><polygon class="cls-11" points="112 35 110 35 110 36 109 36 109 39 113 39 113 36 112 36 112 35"/><rect class="cls-10" x="108" y="40" width="6" height="6"/><polygon class="cls-11" points="112 45 110 45 110 44 109 44 109 41 113 41 113 44 112 44 112 45"/><rect class="cls-10" x="114" y="34" width="6" height="6"/><polygon class="cls-11" points="118 35 116 35 116 36 115 36 115 39 119 39 119 36 118 36 118 35"/><rect class="cls-10" x="114" y="40" width="6" height="6"/><polygon class="cls-11" points="118 45 116 45 116 44 115 44 115 41 119 41 119 44 118 44 118 45"/><rect class="cls-10" x="120" y="34" width="6" height="6"/><polygon class="cls-11" points="124 35 122 35 122 36 121 36 121 39 125 39 125 36 124 36 124 35"/><rect class="cls-10" x="120" y="40" width="6" height="6"/><polygon class="cls-11" points="124 45 122 45 122 44 121 44 121 41 125 41 125 44 124 44 124 45"/><rect class="cls-10" x="126" y="34" width="6" height="6"/><polygon class="cls-11" points="130 35 128 35 128 36 127 36 127 39 131 39 131 36 130 36 130 35"/><rect class="cls-10" x="126" y="40" width="6" height="6"/><polygon class="cls-11" points="130 45 128 45 128 44 127 44 127 41 131 41 131 44 130 44 130 45"/><rect class="cls-10" x="132" y="34" width="6" height="6"/><polygon class="cls-11" points="136 35 134 35 134 36 133 36 133 39 137 39 137 36 136 36 136 35"/><rect class="cls-10" x="132" y="40" width="6" height="6"/><polygon class="cls-11" points="136 45 134 45 134 44 133 44 133 41 137 41 137 44 136 44 136 45"/><rect class="cls-10" x="140" y="34" width="6" height="6"/><polygon class="cls-11" points="144 35 142 35 142 36 141 36 141 39 145 39 145 36 144 36 144 35"/><rect class="cls-10" x="140" y="40" width="6" height="6"/><polygon class="cls-11" points="144 45 142 45 142 44 141 44 141 41 145 41 145 44 144 44 144 45"/><rect class="cls-10" x="146" y="34" width="6" height="6"/><polygon class="cls-11" points="150 35 148 35 148 36 147 36 147 39 151 39 151 36 150 36 150 35"/><rect class="cls-10" x="146" y="40" width="6" height="6"/><polygon class="cls-11" points="150 45 148 45 148 44 147 44 147 41 151 41 151 44 150 44 150 45"/><rect class="cls-10" x="152" y="34" width="6" height="6"/><polygon class="cls-11" points="156 35 154 35 154 36 153 36 153 39 157 39 157 36 156 36 156 35"/><rect class="cls-10" x="152" y="40" width="6" height="6"/><polygon class="cls-11" points="156 45 154 45 154 44 153 44 153 41 157 41 157 44 156 44 156 45"/><rect class="cls-10" x="158" y="34" width="6" height="6"/><polygon class="cls-11" points="162 35 160 35 160 36 159 36 159 39 163 39 163 36 162 36 162 35"/><rect class="cls-10" x="158" y="40" width="6" height="6"/><polygon class="cls-11" points="162 45 160 45 160 44 159 44 159 41 163 41 163 44 162 44 162 45"/><rect class="cls-10" x="164" y="34" width="6" height="6"/><polygon class="cls-11" points="168 35 166 35 166 36 165 36 165 39 169 39 169 36 168 36 168 35"/><rect class="cls-10" x="164" y="40" width="6" height="6"/><polygon class="cls-11" points="168 45 166 45 166 44 165 44 165 41 169 41 169 44 168 44 168 45"/><rect class="cls-10" x="170" y="34" width="6" height="6"/><polygon class="cls-11" points="174 35 172 35 172 36 171 36 171 39 175 39 175 36 174 36 174 35"/><rect class="cls-10" x="170" y="40" width="6" height="6"/><polygon class="cls-11" points="174 45 172 45 172 44 171 44 171 41 175 41 175 44 174 44 174 45"/><rect class="cls-1" width="180" height="16"/><rect class="cls-12" x="1" y="1" width="178" height="14"/><path d="M74.65,12.67l.42-.05a.45.45,0,0,0,.11.25.28.28,0,0,0,.21.08.29.29,0,0,0,.23-.1.4.4,0,0,0,.09-.27.36.36,0,0,0-.09-.26.26.26,0,0,0-.21-.1l-.2,0,.05-.35a.38.38,0,0,0,.27-.08.26.26,0,0,0,.09-.21.22.22,0,0,0-.25-.25.24.24,0,0,0-.19.08.32.32,0,0,0-.09.22l-.41-.07a.84.84,0,0,1,.13-.33.65.65,0,0,1,.24-.19.72.72,0,0,1,.33-.07.7.7,0,0,1,.52.2.57.57,0,0,1,.16.38.54.54,0,0,1-.33.48.57.57,0,0,1,.31.18.56.56,0,0,1,.12.36.67.67,0,0,1-.22.51.84.84,0,0,1-1,0A.72.72,0,0,1,74.65,12.67Z"/><path d="M86.53,12.67l.44,0a.35.35,0,0,0,.1.23.32.32,0,0,0,.21.09.32.32,0,0,0,.24-.11.55.55,0,0,0,.09-.34.46.46,0,0,0-.09-.31.33.33,0,0,0-.25-.1.44.44,0,0,0-.33.16l-.36-.05L86.81,11H88v.4h-.81l-.07.39a.63.63,0,0,1,.3-.07.6.6,0,0,1,.48.21.73.73,0,0,1,.21.54.8.8,0,0,1-.17.5.68.68,0,0,1-.61.3.69.69,0,0,1-.75-.62Z"/><path d="M64,13.29h-.43V11.66A1.44,1.44,0,0,1,63,12v-.4a1,1,0,0,0,.37-.21.78.78,0,0,0,.27-.36H64Z"/><path d="M69.72,12.89v.4H68.2a1,1,0,0,1,.15-.43,3,3,0,0,1,.49-.54A5,5,0,0,0,69.2,12a.48.48,0,0,0,.09-.27.36.36,0,0,0-.08-.23.31.31,0,0,0-.22-.07.25.25,0,0,0-.21.08.4.4,0,0,0-.1.27l-.43,0a.77.77,0,0,1,.24-.52A.85.85,0,0,1,69,11a.74.74,0,0,1,.53.18.58.58,0,0,1,.19.45.93.93,0,0,1,0,.29,1.35,1.35,0,0,1-.18.29,3.3,3.3,0,0,1-.28.29,3.49,3.49,0,0,0-.26.25.47.47,0,0,0-.09.12Z"/><path d="M81,13.29v-.45H80v-.38L81,11h.36v1.44h.28v.38h-.28v.45Zm0-.83v-.78l-.52.78Z"/><path d="M94.52,11.56l-.42,0a.31.31,0,0,0-.08-.19.24.24,0,0,0-.17-.06.28.28,0,0,0-.23.12,1.11,1.11,0,0,0-.12.52.48.48,0,0,1,.4-.2.61.61,0,0,1,.47.21.87.87,0,0,1,0,1.1.76.76,0,0,1-1.09-.06,1.43,1.43,0,0,1-.22-.88,1.39,1.39,0,0,1,.23-.9.74.74,0,0,1,.6-.27.69.69,0,0,1,.43.14.7.7,0,0,1,.21.42Zm-1,.95a.54.54,0,0,0,.09.33.28.28,0,0,0,.23.11.27.27,0,0,0,.2-.09.5.5,0,0,0,.08-.31.45.45,0,0,0-.09-.32.26.26,0,0,0-.21-.11.27.27,0,0,0-.22.1A.42.42,0,0,0,93.54,12.51Z"/><path d="M98.51,11.44V11H100v.32a2.25,2.25,0,0,0-.38.51,3.74,3.74,0,0,0-.29.72,2.67,2.67,0,0,0-.1.69h-.42a2.75,2.75,0,0,1,.2-1,3,3,0,0,1,.48-.87h-1Z"/><path d="M105.38,12.05a.45.45,0,0,1-.25-.19.55.55,0,0,1-.07-.28.53.53,0,0,1,.17-.41.73.73,0,0,1,.51-.17.72.72,0,0,1,.5.17.54.54,0,0,1,.18.41.51.51,0,0,1-.08.28.5.5,0,0,1-.24.19.57.57,0,0,1,.29.23.52.52,0,0,1,.1.33.69.69,0,0,1-.2.51.72.72,0,0,1-.53.2.87.87,0,0,1-.52-.16.65.65,0,0,1-.24-.53.67.67,0,0,1,.09-.34.64.64,0,0,1,.29-.24Zm.09-.44a.24.24,0,0,0,.07.2.26.26,0,0,0,.2.08.26.26,0,0,0,.19-.08.25.25,0,0,0,.08-.2.26.26,0,0,0-.08-.19.24.24,0,0,0-.19-.08.26.26,0,0,0-.2.08.25.25,0,0,0-.07.19Zm0,1a.41.41,0,0,0,.09.28.33.33,0,0,0,.23.1.27.27,0,0,0,.22-.1.39.39,0,0,0,.09-.28.37.37,0,0,0-.09-.26.32.32,0,0,0-.23-.09.25.25,0,0,0-.23.11A.35.35,0,0,0,105.43,12.59Z"/><path d="M110.41,12.75l.42,0a.37.37,0,0,0,.08.19.32.32,0,0,0,.17.06.31.31,0,0,0,.23-.12,1.06,1.06,0,0,0,.12-.52.5.5,0,0,1-.41.19.6.6,0,0,1-.46-.21.72.72,0,0,1-.19-.53.76.76,0,0,1,.2-.56.7.7,0,0,1,.52-.21.71.71,0,0,1,.57.27,1.32,1.32,0,0,1,.22.87,1.35,1.35,0,0,1-.23.9.76.76,0,0,1-.6.27.6.6,0,0,1-.43-.14.65.65,0,0,1-.21-.42Zm1-.95a.49.49,0,0,0-.09-.32.29.29,0,0,0-.22-.12.22.22,0,0,0-.2.1.43.43,0,0,0-.09.31.49.49,0,0,0,.09.32.27.27,0,0,0,.22.1.26.26,0,0,0,.21-.1A.46.46,0,0,0,111.39,11.8Z"/><path d="M117,13.28h-.43V11.64A1.51,1.51,0,0,1,116,12v-.4a1.1,1.1,0,0,0,.37-.21.78.78,0,0,0,.27-.36H117v2.28Z"/><path d="M118.56,11a.62.62,0,0,1,.51.23,1.52,1.52,0,0,1,.22.93,1.46,1.46,0,0,1-.22.92.59.59,0,0,1-.51.23.65.65,0,0,1-.54-.25,1.55,1.55,0,0,1-.2-.91,1.5,1.5,0,0,1,.22-.92.6.6,0,0,1,.52-.23Zm0,.36a.27.27,0,0,0-.15.05.34.34,0,0,0-.09.18,2.39,2.39,0,0,0,0,.57,3.07,3.07,0,0,0,0,.55.31.31,0,0,0,.11.19.17.17,0,0,0,.14,0,.17.17,0,0,0,.13,0,.26.26,0,0,0,.1-.18,2.35,2.35,0,0,0,0-.56,3,3,0,0,0,0-.55.38.38,0,0,0-.11-.2A.21.21,0,0,0,118.56,11.36Z"/><path d="M122.7,13.29h-.43V11.66a1.44,1.44,0,0,1-.56.33v-.4a1.1,1.1,0,0,0,.37-.21.78.78,0,0,0,.27-.36h.35Z"/><path d="M124.47,13.29H124V11.66a1.37,1.37,0,0,1-.56.33v-.4a1,1,0,0,0,.37-.21.72.72,0,0,0,.27-.36h.36v2.27Z"/><path d="M128.88,13.29h-.43V11.66a1.51,1.51,0,0,1-.56.33v-.4a1.1,1.1,0,0,0,.37-.21.78.78,0,0,0,.27-.36h.35Z"/><path d="M131.18,12.89v.4h-1.53a1.16,1.16,0,0,1,.15-.43,3.41,3.41,0,0,1,.49-.54,2.64,2.64,0,0,0,.36-.37.48.48,0,0,0,.09-.27.36.36,0,0,0-.08-.23.28.28,0,0,0-.21-.07.27.27,0,0,0-.22.08.45.45,0,0,0-.09.27l-.44,0a.74.74,0,0,1,.25-.52.81.81,0,0,1,.51-.15.71.71,0,0,1,.52.18.59.59,0,0,1,.2.45.94.94,0,0,1-.06.29,1.28,1.28,0,0,1-.17.29,3.84,3.84,0,0,1-.29.29l-.26.25a.47.47,0,0,0-.09.12Z"/><path d="M135,13.28h-.43V11.64A1.51,1.51,0,0,1,134,12v-.4a1.1,1.1,0,0,0,.37-.21.78.78,0,0,0,.27-.36H135v2.28Z"/><path d="M135.81,12.67l.42-.05a.44.44,0,0,0,.1.25.29.29,0,0,0,.22.08.27.27,0,0,0,.22-.1.36.36,0,0,0,.1-.27.36.36,0,0,0-.09-.26.27.27,0,0,0-.22-.1l-.2,0,0-.35a.36.36,0,0,0,.27-.08.24.24,0,0,0,.1-.21.29.29,0,0,0-.07-.19.29.29,0,0,0-.19-.06.22.22,0,0,0-.18.08.33.33,0,0,0-.1.22l-.4-.07a.84.84,0,0,1,.13-.33.55.55,0,0,1,.23-.19.74.74,0,0,1,.34-.07.69.69,0,0,1,.51.2.52.52,0,0,1,.16.38.55.55,0,0,1-.32.48.61.61,0,0,1,.31.18.62.62,0,0,1,.12.36.68.68,0,0,1-.23.51.77.77,0,0,1-.54.2.8.8,0,0,1-.51-.17A.66.66,0,0,1,135.81,12.67Z"/><path d="M140.73,13.29h-.43V11.66a1.51,1.51,0,0,1-.56.33v-.4a1,1,0,0,0,.36-.21.74.74,0,0,0,.28-.36h.35v2.27Z"/><path d="M142.41,13.29v-.45h-.93v-.38l1-1.44h.37v1.44h.28v.38h-.28v.45Zm0-.83v-.78l-.52.78Z"/><path d="M147.19,13.28h-.44V11.64a1.44,1.44,0,0,1-.56.33v-.4a1.1,1.1,0,0,0,.37-.21.78.78,0,0,0,.27-.36h.36v2.28Z"/><path d="M148,12.69l.43,0a.36.36,0,0,0,.11.23.29.29,0,0,0,.21.09.3.3,0,0,0,.23-.11.55.55,0,0,0,.1-.34.41.41,0,0,0-.1-.31.3.3,0,0,0-.24-.1.45.45,0,0,0-.34.16l-.35,0,.22-1.18h1.15v.41h-.82l-.07.38a.66.66,0,0,1,.3-.07.65.65,0,0,1,.49.21.72.72,0,0,1,.2.54.84.84,0,0,1-.16.51.74.74,0,0,1-.61.29.81.81,0,0,1-.52-.16A.7.7,0,0,1,148,12.69Z"/><path d="M152.64,13.28h-.43V11.64a1.47,1.47,0,0,1-.57.33v-.4a.94.94,0,0,0,.37-.21.88.88,0,0,0,.28-.36h.35v2.28Z"/><path d="M154.94,11.56l-.42,0a.37.37,0,0,0-.08-.19.24.24,0,0,0-.17-.06.28.28,0,0,0-.23.12.9.9,0,0,0-.12.52.47.47,0,0,1,.4-.2.62.62,0,0,1,.47.21.76.76,0,0,1,.19.54.8.8,0,0,1-.2.56.74.74,0,0,1-.53.2.7.7,0,0,1-.56-.26,1.37,1.37,0,0,1-.22-.88,1.39,1.39,0,0,1,.23-.9.74.74,0,0,1,.59-.27.65.65,0,0,1,.43.14.66.66,0,0,1,.22.42Zm-1,.95a.48.48,0,0,0,.1.33.28.28,0,0,0,.22.11.25.25,0,0,0,.2-.09.44.44,0,0,0,.09-.31.45.45,0,0,0-.09-.32.28.28,0,0,0-.22-.11.26.26,0,0,0-.21.1A.42.42,0,0,0,154,12.51Z"/><path class="cls-13" d="M11.81,9l3.44-3.37h.18v.18L13.94,7.38l1.81,1.87v.18h-.24l-1.86-1.8a4.76,4.76,0,0,1-.42.44c-.45.45-.92.9-1.38,1.34l0,0h0A.43.43,0,0,1,11.46,9V5.59h.35V9Zm6.46.1.12-.23.36-.69c.42-.85.83-1.71,1.24-2.57l0,0h.32v.18C20,6.52,19.6,7.27,19.21,8c-.25.46-.5.94-.79,1.38l0,0h-.24c-.09,0-.19-.2-.23-.27-.13-.22-.25-.45-.36-.68-.46-.89-.89-1.81-1.32-2.71V5.59h.19a5.8,5.8,0,0,1,.56,1c.43.85.85,1.71,1.28,2.57Zm3.8-1.84c.15.22.68,1.49.81,1.8h0c.33-.86.67-1.73,1.05-2.56.11-.23.21-.46.33-.67s.15-.25.26-.26h.07c.12,0,.21.13.26.23V9.49h-.15a.18.18,0,0,1-.2-.2V6c-.33.83-.66,1.68-1,2.49-.07.18-.39.9-.58,1h0c-.19,0-.4-.46-.47-.6a17,17,0,0,1-.68-1.66A5,5,0,0,1,21.19,6V9.5H21a.19.19,0,0,1-.21-.21V6.05h0c0-.15.07-.45.28-.45h.06c.16,0,.32.33.39.46A13.26,13.26,0,0,1,22.07,7.28Z"/><polygon class="cls-2" points="31 14 29 13 1 13 1 15 179 15 179 14 31 14"/><rect class="cls-14" x="34" y="4" width="11" height="7"/><rect class="cls-12" x="35" y="5" width="1" height="1"/><rect class="cls-12" x="36" y="5" width="1" height="1"/><rect class="cls-12" x="37" y="5" width="1" height="1"/><rect class="cls-12" x="35" y="6" width="1" height="1"/><rect class="cls-12" x="37" y="6" width="1" height="1"/><rect class="cls-12" x="35" y="8" width="1" height="1"/><rect class="cls-12" x="37" y="8" width="1" height="1"/><rect class="cls-12" x="35" y="7" width="1" height="1"/><rect class="cls-12" x="36" y="7" width="1" height="1"/><rect class="cls-12" x="37" y="7" width="1" height="1"/><rect class="cls-12" x="35" y="9" width="1" height="1"/><rect class="cls-12" x="36" y="9" width="1" height="1"/><rect class="cls-12" x="37" y="9" width="1" height="1"/><rect class="cls-12" x="41" y="5" width="1" height="1"/><rect class="cls-12" x="42" y="5" width="1" height="1"/><rect class="cls-12" x="43" y="5" width="1" height="1"/><rect class="cls-12" x="41" y="6" width="1" height="1"/><rect class="cls-12" x="43" y="6" width="1" height="1"/><rect class="cls-12" x="41" y="8" width="1" height="1"/><rect class="cls-12" x="43" y="8" width="1" height="1"/><rect class="cls-12" x="41" y="7" width="1" height="1"/><rect class="cls-12" x="42" y="7" width="1" height="1"/><rect class="cls-12" x="43" y="7" width="1" height="1"/><rect class="cls-12" x="41" y="9" width="1" height="1"/><rect class="cls-12" x="42" y="9" width="1" height="1"/><rect class="cls-12" x="43" y="9" width="1" height="1"/><rect class="cls-12" x="39" y="9" width="1" height="1"/><rect class="cls-15" x="61" y="6" width="4" height="4"/><path class="cls-16" d="M65,6m1-1H61v5h5V5Z"/><rect class="cls-15" x="67" y="6" width="4" height="4"/><path class="cls-16" d="M72,5H67v5h5V5Z"/><rect class="cls-15" x="73" y="6" width="4" height="4"/><path class="cls-16" d="M78,5H73v5h5V5Z"/><rect class="cls-15" x="79" y="6" width="4" height="4"/><path class="cls-16" d="M84,5H79v5h5V5Z"/><rect class="cls-15" x="85" y="6" width="4" height="4"/><path class="cls-16" d="M90,5H85v5h5V5Z"/><rect class="cls-15" x="91" y="6" width="4" height="4"/><path class="cls-16" d="M96,5H91v5h5V5Z"/><rect class="cls-15" x="97" y="6" width="4" height="4"/><path class="cls-16" d="M102,5H97v5h5V5Z"/><rect class="cls-15" x="103" y="6" width="4" height="4"/><path class="cls-16" d="M108,5h-5v5h5V5Z"/><rect class="cls-15" x="109" y="6" width="4" height="4"/><path class="cls-16" d="M114,5h-5v5h5V5Z"/><rect class="cls-15" x="115" y="6" width="4" height="4"/><path class="cls-16" d="M120,5h-5v5h5V5Z"/><rect class="cls-15" x="121" y="6" width="4" height="4"/><path class="cls-16" d="M126,5h-5v5h5V5Z"/><rect class="cls-15" x="127" y="6" width="4" height="4"/><path class="cls-16" d="M132,5h-5v5h5V5Z"/><rect class="cls-15" x="133" y="6" width="4" height="4"/><path class="cls-16" d="M138,5h-5v5h5V5Z"/><rect class="cls-15" x="139" y="6" width="4" height="4"/><path class="cls-16" d="M144,5h-5v5h5V5Z"/><rect class="cls-15" x="145" y="6" width="4" height="4"/><path class="cls-16" d="M150,5h-5v5h5V5Z"/><rect class="cls-15" x="151" y="6" width="4" height="4"/><path class="cls-16" d="M156,5h-5v5h5V5Z"/><rect class="cls-17" x="62" y="3" width="1" height="1"/><rect class="cls-3" x="64" y="3" width="1" height="1"/><rect class="cls-17" x="68" y="3" width="1" height="1"/><rect class="cls-3" x="70" y="3" width="1" height="1"/><rect class="cls-17" x="74" y="3" width="1" height="1"/><rect class="cls-3" x="76" y="3" width="1" height="1"/><rect class="cls-17" x="80" y="3" width="1" height="1"/><rect class="cls-3" x="82" y="3" width="1" height="1"/><rect class="cls-17" x="86" y="3" width="1" height="1"/><rect class="cls-3" x="88" y="3" width="1" height="1"/><rect class="cls-17" x="92" y="3" width="1" height="1"/><rect class="cls-3" x="94" y="3" width="1" height="1"/><rect class="cls-17" x="98" y="3" width="1" height="1"/><rect class="cls-18" x="100" y="3" width="1" height="1"/><rect class="cls-17" x="104" y="3" width="1" height="1"/><rect class="cls-18" x="106" y="3" width="1" height="1"/><rect class="cls-17" x="110" y="3" width="1" height="1"/><rect class="cls-18" x="112" y="3" width="1" height="1"/><rect class="cls-17" x="116" y="3" width="1" height="1"/><rect class="cls-18" x="118" y="3" width="1" height="1"/><rect class="cls-17" x="122" y="3" width="1" height="1"/><rect class="cls-18" x="124" y="3" width="1" height="1"/><rect class="cls-17" x="128" y="3" width="1" height="1"/><rect class="cls-18" x="130" y="3" width="1" height="1"/><rect class="cls-17" x="134" y="3" width="1" height="1"/><rect class="cls-18" x="136" y="3" width="1" height="1"/><rect class="cls-17" x="140" y="3" width="1" height="1"/><rect class="cls-18" x="142" y="3" width="1" height="1"/><rect class="cls-17" x="146" y="3" width="1" height="1"/><rect class="cls-18" x="148" y="3" width="1" height="1"/><rect class="cls-17" x="152" y="3" width="1" height="1"/><rect class="cls-18" x="154" y="3" width="1" height="1"/></svg>